<svg id="Layer_1" data-name="Layer 1" xmlns="http://www.w3.org/2000/svg" viewBox="0 0 200.4 50"><defs><style>.cls-1{fill:#c1d82f;}.cls-2{fill:#fff;}</style></defs><title>1lulz_logo-small</title><g id="g10"><g id="g4259"><g id="g16"><path id="path22" d="M100.35,2.93L79.46,39.09h41.78L100.35,2.93"/><path id="path24" d="M83.13,45.24a0.11,0.11,0,0,1,.11.05,0.15,0.15,0,0,1,0,.13v1.07a0.26,0.26,0,0,1,0,.13,0.15,0.15,0,0,1-.11.05H79.63a0.12,0.12,0,0,1-.14-0.14V41.14A0.12,0.12,0,0,1,79.63,41h1.13a0.12,0.12,0,0,1,.14.14v4a0.11,0.11,0,0,0,.05.11,0.15,0.15,0,0,0,.13,0l2.06,0"/><path id="path26" d="M89.62,41a0.16,0.16,0,0,1,.05.13v4.47h0a0.27,0.27,0,0,1,0,.13s0,0.07,0,.11l-0.75.75-0.14.05a0.44,0.44,0,0,1-.14,0H86a0.35,0.35,0,0,1-.14,0,0.87,0.87,0,0,1-.13-0.05L85,45.81l-0.05-.13a0.44,0.44,0,0,1,0-.14V41.09a0.18,0.18,0,0,1,.18-0.18h1.13a0.18,0.18,0,0,1,.18.18v4a0.18,0.18,0,0,0,.18.18h1.61a0.11,0.11,0,0,0,.11-0.05,0.15,0.15,0,0,0,0-.13v-4a0.18,0.18,0,0,1,.18-0.18h1.14c-0.07,0,0,.05,0,0.07"/><path id="path28" d="M95.42,45.24a0.11,0.11,0,0,1,.11.05,0.15,0.15,0,0,1,0,.13v1.07a0.26,0.26,0,0,1,0,.13,0.15,0.15,0,0,1-.11.05H91.91a0.12,0.12,0,0,1-.14-0.14V41.14A0.12,0.12,0,0,1,91.91,41H93a0.12,0.12,0,0,1,.14.14v4a0.11,0.11,0,0,0,.05.11,0.15,0.15,0,0,0,.13,0l2.06,0"/><path id="path30" d="M101.53,42.13a0.26,0.26,0,0,1,0,.13,0.78,0.78,0,0,1-.07.13l-2.65,3h2.58a0.18,0.18,0,0,1,.18.18v1a0.18,0.18,0,0,1-.18.18h-4a0.12,0.12,0,0,1-.14-0.14v-1a0.26,0.26,0,0,1,0-.13,0.21,0.21,0,0,1,.07-0.13l2.7-3H97.4a0.18,0.18,0,0,1-.18-0.18v-1a0.18,0.18,0,0,1,.18-0.18h4a0.18,0.18,0,0,1,.18.18v1"/><path id="path32" d="M104.93,45.4h2.18V44.29h-2.18V45.4h0Zm0-2.22h2.18v-1h-2.18v1h0Zm3.42-1.43a1.23,1.23,0,0,1,.05.14,0.44,0.44,0,0,1,0,.14v0.89a0.42,0.42,0,0,1,0,.14,0.21,0.21,0,0,1-.07.13l-0.36.45a0.15,0.15,0,0,0,0,.13,0.16,0.16,0,0,0,.05.13l0.34,0.39a0.29,0.29,0,0,1,.07.13,0.55,0.55,0,0,1,0,.14v0.95a0.35,0.35,0,0,1,0,.14,0.43,0.43,0,0,1-.05.13l-0.75.75-0.14.05a0.44,0.44,0,0,1-.14,0H103.8a0.12,0.12,0,0,1-.14-0.14V41.13a0.18,0.18,0,0,1,.18-0.18h3.49a0.35,0.35,0,0,1,.14,0L107.61,41l0.73,0.73"/><path id="path34" d="M111.89,45.26h1.91v-3h-1.91v3Zm3.31-3.51,0.05,0.13a0.39,0.39,0,0,1,0,.14v3.51a0.35,0.35,0,0,1,0,.14,0.43,0.43,0,0,1-.05.13l-0.75.75-0.14.05a0.44,0.44,0,0,1-.14,0h-2.58a0.39,0.39,0,0,1-.14,0,0.43,0.43,0,0,1-.13-0.05l-0.75-.75-0.05-.13a0.44,0.44,0,0,1,0-.14V42a0.39,0.39,0,0,1,0-.14,0.43,0.43,0,0,1,.05-0.13l0.75-.75,0.13-.05a0.44,0.44,0,0,1,.14,0h2.58a0.35,0.35,0,0,1,.14,0L114.45,41l0.75,0.73"/><path id="path36" d="M121.24,42.16a0.18,0.18,0,0,1-.18.18H119.9a0.26,0.26,0,0,0-.13,0,0.15,0.15,0,0,0-.05.11v4a0.26,0.26,0,0,1,0,.13,0.15,0.15,0,0,1-.11.05h-1.14a0.18,0.18,0,0,1-.18-0.18v-4a0.15,0.15,0,0,0,0-.11,0.13,0.13,0,0,0-.11,0h-1.16a0.18,0.18,0,0,1-.18-0.18V41.09a0.12,0.12,0,0,1,.14-0.14h4.18a0.18,0.18,0,0,1,.18.18l0,1"/><path id="path38" class="cls-1" d="M100.35,5l4.94,8.53H95.42L100.35,5"/><path id="path40" class="cls-1" d="M81.25,38l4.92-8.53L91.09,38H81.25"/><path id="path42" class="cls-1" d="M92.29,38l-5.53-9.55,8-13.93h11.07l8,13.88L108.36,38H92.29"/><path id="path44" class="cls-1" d="M109.56,38l5-8.58,5,8.58h-9.91"/><path id="path46" d="M100.55,36.91a0.29,0.29,0,0,1-.2.09,0.33,0.33,0,0,1-.2-0.09,1.17,1.17,0,0,1-.18-0.39A1.65,1.65,0,0,0,99.66,36a1,1,0,0,0-.48-0.25,0.8,0.8,0,0,0-.52.13,2.54,2.54,0,0,0-.45.43,1.59,1.59,0,0,1-.29.34,0.3,0.3,0,0,1-.21,0,0.29,0.29,0,0,1-.16-0.13,1.44,1.44,0,0,1-.09-0.43,1.8,1.8,0,0,0-.16-0.61,1,1,0,0,0-.39-0.38,0.79,0.79,0,0,0-.54,0,1.6,1.6,0,0,0-.55.32,1.92,1.92,0,0,1-.38.27,0.29,0.29,0,0,1-.21,0,0.27,0.27,0,0,1-.13-0.16A1.69,1.69,0,0,1,95.15,35a1.56,1.56,0,0,0,0-.64,0.78,0.78,0,0,0-.29-0.45,1,1,0,0,0-.52-0.16,1.75,1.75,0,0,0-.63.18,2,2,0,0,1-.43.16,0.26,0.26,0,0,1-.2-0.09,0.29,0.29,0,0,1-.09-0.2,1.91,1.91,0,0,1,.16-0.43,1.57,1.57,0,0,0,.18-0.63,0.82,0.82,0,0,0-.16-0.52A1,1,0,0,0,92.73,32a1.56,1.56,0,0,0-.64,0,1.76,1.76,0,0,1-.45.05,0.29,0.29,0,0,1-.16-0.13,0.28,0.28,0,0,1,0-.21,1.14,1.14,0,0,1,.27-0.38A1.73,1.73,0,0,0,92,30.74a0.79,0.79,0,0,0,0-.54,0.73,0.73,0,0,0-.38-0.39A1.6,1.6,0,0,0,91,29.65a1.31,1.31,0,0,1-.43-0.09,0.33,0.33,0,0,1-.13-0.16,0.31,0.31,0,0,1,0-.21,1.59,1.59,0,0,1,.34-0.29,1.63,1.63,0,0,0,.43-0.43,0.93,0.93,0,0,0,.13-0.52,0.85,0.85,0,0,0-.25-0.48,2.25,2.25,0,0,0-.54-0.32A2.19,2.19,0,0,1,90.2,27a0.29,0.29,0,0,1-.09-0.2,0.25,0.25,0,0,1,.09-0.2,1.17,1.17,0,0,1,.39-0.18,1.65,1.65,0,0,0,.54-0.32,1,1,0,0,0,.25-0.48,0.8,0.8,0,0,0-.13-0.52,2.54,2.54,0,0,0-.43-0.45,1.59,1.59,0,0,1-.34-0.29,0.3,0.3,0,0,1,0-.21A0.29,0.29,0,0,1,90.59,24,1.44,1.44,0,0,1,91,23.87a1.8,1.8,0,0,0,.61-0.16A1,1,0,0,0,92,23.31a0.79,0.79,0,0,0,0-.54,1.37,1.37,0,0,0-.3-0.54,1.92,1.92,0,0,1-.27-0.38,0.29,0.29,0,0,1,0-.21,0.22,0.22,0,0,1,.16-0.13,1.16,1.16,0,0,1,.45.05,1.56,1.56,0,0,0,.64,0,0.78,0.78,0,0,0,.45-0.29,0.82,0.82,0,0,0,.16-0.52,1.75,1.75,0,0,0-.18-0.63A1.3,1.3,0,0,1,93,19.72a0.26,0.26,0,0,1,.09-0.2,0.29,0.29,0,0,1,.2-0.09,2.3,2.3,0,0,1,.43.16,1.57,1.57,0,0,0,.63.18,0.82,0.82,0,0,0,.52-0.16,1,1,0,0,0,.29-0.45,1.56,1.56,0,0,0,0-.64,1.76,1.76,0,0,1-.05-0.45,0.39,0.39,0,0,1,.13-0.16,0.29,0.29,0,0,1,.21,0,1.14,1.14,0,0,1,.38.27,1.73,1.73,0,0,0,.55.32,0.79,0.79,0,0,0,.54,0,0.73,0.73,0,0,0,.39-0.38,1.6,1.6,0,0,0,.16-0.61A1,1,0,0,1,97.56,17a0.33,0.33,0,0,1,.16-0.13,0.3,0.3,0,0,1,.21,0,1.59,1.59,0,0,1,.29.34,1.46,1.46,0,0,0,.45.43,0.93,0.93,0,0,0,.52.13,0.85,0.85,0,0,0,.48-0.25A2.25,2.25,0,0,0,100,17a2.19,2.19,0,0,1,.18-0.39,0.29,0.29,0,0,1,.2-0.09,0.33,0.33,0,0,1,.2.09,1.17,1.17,0,0,1,.18.39,1.65,1.65,0,0,0,.32.54,1,1,0,0,0,.48.25,0.8,0.8,0,0,0,.52-0.13,2.54,2.54,0,0,0,.45-0.43,1.59,1.59,0,0,1,.29-0.34,0.3,0.3,0,0,1,.21,0,0.29,0.29,0,0,1,.16.13,1.44,1.44,0,0,1,.09.43,1.8,1.8,0,0,0,.16.61,0.8,0.8,0,0,0,.39.38,0.79,0.79,0,0,0,.54,0,1.6,1.6,0,0,0,.55-0.32,1.92,1.92,0,0,1,.38-0.27,0.29,0.29,0,0,1,.21,0,0.27,0.27,0,0,1,.13.16,1.69,1.69,0,0,1-.05.45,1.56,1.56,0,0,0,0,.64,0.78,0.78,0,0,0,.29.45,0.82,0.82,0,0,0,.52.16,1.75,1.75,0,0,0,.63-0.18,1.3,1.3,0,0,1,.43-0.16,0.26,0.26,0,0,1,.2.09,0.29,0.29,0,0,1,.09.2,1.91,1.91,0,0,1-.16.43,1.57,1.57,0,0,0-.18.63,0.85,0.85,0,0,0,.16.52,1,1,0,0,0,.45.29,1.56,1.56,0,0,0,.64,0,1.76,1.76,0,0,1,.45-0.05,0.29,0.29,0,0,1,.16.13,0.29,0.29,0,0,1,0,.21,1.14,1.14,0,0,1-.27.38,1.73,1.73,0,0,0-.32.55,0.79,0.79,0,0,0,0,.54,0.73,0.73,0,0,0,.38.39,1.6,1.6,0,0,0,.61.16,0.9,0.9,0,0,1,.43.09,0.33,0.33,0,0,1,.13.16,0.31,0.31,0,0,1,0,.21,1.59,1.59,0,0,1-.34.29,1.63,1.63,0,0,0-.43.43,1.11,1.11,0,0,0-.13.52,0.85,0.85,0,0,0,.25.48,2.25,2.25,0,0,0,.54.32,2.19,2.19,0,0,1,.39.18,0.29,0.29,0,0,1,.09.2,0.33,0.33,0,0,1-.09.2,1.17,1.17,0,0,1-.39.18,1.65,1.65,0,0,0-.54.32,1,1,0,0,0-.25.48,0.8,0.8,0,0,0,.13.52,2.54,2.54,0,0,0,.43.45,1.59,1.59,0,0,1,.34.29,0.3,0.3,0,0,1,0,.21,0.29,0.29,0,0,1-.13.16,1.44,1.44,0,0,1-.43.09,1.8,1.8,0,0,0-.61.16,1,1,0,0,0-.38.39,0.79,0.79,0,0,0,0,.54,1.6,1.6,0,0,0,.32.55,1.52,1.52,0,0,1,.27.39,0.29,0.29,0,0,1,0,.21,0.22,0.22,0,0,1-.16.13,1.69,1.69,0,0,1-.45-0.05,1.56,1.56,0,0,0-.64,0,0.78,0.78,0,0,0-.45.29,0.82,0.82,0,0,0-.16.52,1.75,1.75,0,0,0,.18.63,2,2,0,0,1,.16.43,0.26,0.26,0,0,1-.09.2,0.29,0.29,0,0,1-.2.09A2.3,2.3,0,0,1,107,34a1.57,1.57,0,0,0-.63-0.18,0.82,0.82,0,0,0-.52.16,1.17,1.17,0,0,0-.3.45,1.56,1.56,0,0,0,0,.64,1.76,1.76,0,0,1,.05.45,0.29,0.29,0,0,1-.13.16,0.29,0.29,0,0,1-.21,0,1.14,1.14,0,0,1-.38-0.27,1.73,1.73,0,0,0-.55-0.32,0.79,0.79,0,0,0-.54,0,0.73,0.73,0,0,0-.39.38,1.6,1.6,0,0,0-.16.61,0.9,0.9,0,0,1-.09.43,0.33,0.33,0,0,1-.16.13,0.31,0.31,0,0,1-.21,0,1.59,1.59,0,0,1-.29-0.34,1.46,1.46,0,0,0-.45-0.43,0.93,0.93,0,0,0-.52-0.13,0.75,0.75,0,0,0-.48.25,2.25,2.25,0,0,0-.32.54c-0.07.14-.14,0.3-0.18,0.36"/><path id="path48" class="cls-2" d="M96.72,29.32a0.48,0.48,0,0,1-.11-0.18,0.76,0.76,0,0,1,0-.2,0.73,0.73,0,0,1,0-.2,0.07,0.07,0,0,1,0-.05,0.06,0.06,0,0,0,0,0l0,0,0.05-.11a0.93,0.93,0,0,1,.29-0.3l0.05,0,0,0,0,0,0.07,0A0.72,0.72,0,0,0,97.33,28a0.41,0.41,0,0,1,.2-0.05,0.73,0.73,0,0,1,.2,0,2.67,2.67,0,0,1,.38,0l0.16,0H98.4a0.79,0.79,0,0,0,.39-0.09h0a0.45,0.45,0,0,0,.13-0.07l0.23-.16h0a0.59,0.59,0,0,0,.18-0.2c0.05-.11.07-0.13,0-0.14l-0.29,0h0a2.42,2.42,0,0,1-.36,0,2.68,2.68,0,0,1-.39,0,0.87,0.87,0,0,1-.21,0,0.49,0.49,0,0,1-.21-0.11,0.73,0.73,0,0,1-.16-0.18l-0.05-.11a0.46,0.46,0,0,0,0-.09,1.72,1.72,0,0,0-.13-0.32,2.18,2.18,0,0,1-.13-0.3,2.62,2.62,0,0,0-.16-0.23A0.55,0.55,0,0,0,96.94,26a0.72,0.72,0,0,0-.27.05l0,0,0,0-0.05.05a0.47,0.47,0,0,0-.09.11,0.35,0.35,0,0,0-.05.27,0.34,0.34,0,0,0,0,.14v0h0v0s0,0,0,0v0l0,0.05a0.25,0.25,0,0,0,.25.09A0.44,0.44,0,0,0,97,26.8a0.24,0.24,0,0,0,.13-0.23v0a0.11,0.11,0,0,1,.11-0.05,0.08,0.08,0,0,1,.05.09,0.23,0.23,0,0,1-.07.16,0.34,0.34,0,0,1-.13.14,0.56,0.56,0,0,1-.38.13,0.73,0.73,0,0,1-.2,0,0.41,0.41,0,0,1-.18-0.13,0.18,0.18,0,0,1-.07-0.09l0,0a0,0,0,0,0,0,0v0l0,0a1,1,0,0,1-.05-0.18,0.62,0.62,0,0,1,.07-0.39A0.39,0.39,0,0,1,96.35,26l0.07-.07,0.05,0,0.05,0a1,1,0,0,1,.39-0.11,0.73,0.73,0,0,1,.39.13,0.87,0.87,0,0,1,.27.3,1.09,1.09,0,0,1,.16.32,2.53,2.53,0,0,1,.14.32L98,26.94,98,27a0.14,0.14,0,0,0,.09,0,0.27,0.27,0,0,0,.13,0A0.61,0.61,0,0,0,98.53,27a1.25,1.25,0,0,0,.16-0.11,0.64,0.64,0,0,0,.18-0.2,1.33,1.33,0,0,1-.11-1,2.11,2.11,0,0,1-.23-0.32,1.62,1.62,0,0,1-.2-0.39,0.89,0.89,0,0,1-.05-0.23,0.59,0.59,0,0,1,0-.25,0.33,0.33,0,0,1,0-.13,0,0,0,0,1,0,0h0v0l0,0a1.13,1.13,0,0,0,.07-0.16,2.67,2.67,0,0,0,.07-0.32,0.27,0.27,0,0,0,0-.13s0,0,0-.05l-0.05-.07A0.64,0.64,0,0,0,98,23.26a0.35,0.35,0,0,0-.38.21,0.09,0.09,0,0,0,0,.07,0,0,0,0,1,0,0l0,0a0.3,0.3,0,0,0,0,.13,0.22,0.22,0,0,0,.09.18,0.36,0.36,0,0,0,.23.07,0.41,0.41,0,0,0,.25-0.07h0a0.06,0.06,0,0,1,.09,0,0.07,0.07,0,0,1,0,.11h0c-0.05.05-.11,0.07-0.14,0.11l-0.18.05a0.57,0.57,0,0,1-.38-0.07A0.28,0.28,0,0,1,97.37,24a0.22,0.22,0,0,0,0-.14,0.73,0.73,0,0,1,0-.2l0,0a0.07,0.07,0,0,1,0-.05,0.46,0.46,0,0,1,0-.09,0.72,0.72,0,0,1,.25-0.32A0.77,0.77,0,0,1,98.08,23a0.7,0.7,0,0,1,.38.11,0.77,0.77,0,0,1,.3.23h0l0,0a0.39,0.39,0,0,1,.05.09,0.78,0.78,0,0,1,.07.13,0.61,0.61,0,0,1,0,.25,1.4,1.4,0,0,1-.07.39c0,0.07,0,.13,0,0.18v0.05h0v0.07a0.48,0.48,0,0,0,.09.23,1.12,1.12,0,0,0,.2.21,1.36,1.36,0,0,0,.2.14,1.33,1.33,0,0,1,1.56.14,1.12,1.12,0,0,0,.21-0.2h0l0,0a1.09,1.09,0,0,0,.13-0.18,1.57,1.57,0,0,1,.11-0.18,0.79,0.79,0,0,0,0-.18,0.2,0.2,0,0,0-.05-0.14l-0.05-.07,0-.05,0,0a1.37,1.37,0,0,1-.16-0.16c-0.13-.11-0.25-0.2-0.39-0.3a1.78,1.78,0,0,1-.2-0.18,0.54,0.54,0,0,1-.09-0.13c-0.07,0-.09,0-0.09-0.07V23.33a0.89,0.89,0,0,1,0-.3,0.87,0.87,0,0,1,.05-0.13,0.26,0.26,0,0,0,0-.07s0,0,0,0,0,0,0,0h0v0l0,0,0,0,0.05-.05a0.54,0.54,0,0,1,.13-0.09,0.94,0.94,0,0,1,.32-0.07,0.52,0.52,0,0,1,.29.07,0.78,0.78,0,0,1,.13.07,0.36,0.36,0,0,1,.13.11,0.38,0.38,0,0,1,.13.27,0.51,0.51,0,0,1-.05.29,1.08,1.08,0,0,1-.16.23,0.47,0.47,0,0,1-.27.13h0a0.08,0.08,0,0,1-.07-0.07,0.12,0.12,0,0,1,.07-0.09h0a0.25,0.25,0,0,0,.18-0.09,0.49,0.49,0,0,0,.13-0.16,0.37,0.37,0,0,0,0-.2,0.26,0.26,0,0,0-.11-0.16,0.15,0.15,0,0,0-.09-0.05l-0.11-.05a0.39,0.39,0,0,0-.2,0,0.23,0.23,0,0,0-.18.07,0.31,0.31,0,0,0-.09.07l0,0,0,0v0h0l0,0v0s0,0,0,.05a0.25,0.25,0,0,0,0,.11,0.67,0.67,0,0,0,0,.18v0h0v0a0,0,0,0,0,0,0,0.25,0.25,0,0,1,.05.07,1,1,0,0,0,.16.13c0.13,0.09.29,0.18,0.41,0.29l0.2,0.16,0.05,0,0.05,0.05a0.67,0.67,0,0,1,.11.13,0.54,0.54,0,0,1,.11.32,0.87,0.87,0,0,1,0,.3,1.67,1.67,0,0,1-.07.29l-0.11.25a2.39,2.39,0,0,1-.11.21h0s-0.16.46,0.21,0.14l0,0,0,0,0.09-.09a2.45,2.45,0,0,0,.29-0.32,1.51,1.51,0,0,0,.2-0.38s0-.07,0-0.11l0-.11,0.05-.25,0.05-.23a1.32,1.32,0,0,1,.07-0.25,0.82,0.82,0,0,1,.13-0.25l0.09-.11,0.11-.11A0.59,0.59,0,0,1,103,23.4l0.13-.05,0.13,0h0a0.16,0.16,0,0,1,.09,0l0.07,0a0.43,0.43,0,0,1,.13.05,1.08,1.08,0,0,1,.23.16,0.38,0.38,0,0,1,.13.25,1.14,1.14,0,0,0,0,.13,0.38,0.38,0,0,1,0,.14,0.47,0.47,0,0,1-.13.27,0.38,0.38,0,0,1-.25.13,0.52,0.52,0,0,1-.29,0,0.53,0.53,0,0,1-.27-0.13h0a0.09,0.09,0,1,1,.13-0.13h0a0.42,0.42,0,0,0,.18.09,0.51,0.51,0,0,0,.23,0,0.43,0.43,0,0,0,.2-0.11,0.28,0.28,0,0,0,.09-0.18V23.9a0.33,0.33,0,0,0,0-.13,1.2,1.2,0,0,0-.13-0.2,0.54,0.54,0,0,0-.18-0.13,0.26,0.26,0,0,0-.13,0l-0.05,0h-0.05a0.25,0.25,0,0,0-.11,0l-0.11.05a0.64,0.64,0,0,0-.18.13,0.27,0.27,0,0,0-.07.07,0.18,0.18,0,0,1-.07.09,0.87,0.87,0,0,0-.07.2,1.85,1.85,0,0,0-.09.5v0.36a0.23,0.23,0,0,1,0,.13,2.2,2.2,0,0,1-.14.52,2.65,2.65,0,0,1-.25.45c-0.11.14-.2,0.29-0.3,0.41s0,0,0,0a1.43,1.43,0,0,1,.29-0.14l0.27-.11a1.7,1.7,0,0,1,.32-0.07,0.71,0.71,0,0,1,.38.07,0.39,0.39,0,0,1,.16.13l0.13,0.14,0,0.05,0,0.05,0.07,0.11,0.13,0.21a3.06,3.06,0,0,0,.23.41,0.63,0.63,0,0,0,.13.16l0.07,0.05,0,0,0.05,0a0.73,0.73,0,0,0,.2,0l0.11,0,0.05,0,0,0,0,0h0a0,0,0,0,0,0,0,0,0,0,0,0,0,0,0.07,0.07,0,0,0,0,0,0.27,0.27,0,0,0,.07-0.07,0.42,0.42,0,0,0,.09-0.18,0.26,0.26,0,0,0,0-.2s0-.07,0-0.11a0.39,0.39,0,0,0-.05-0.09,0.45,0.45,0,0,0-.14-0.13,0.37,0.37,0,0,0-.2,0,0.37,0.37,0,0,0-.18.11,0.42,0.42,0,0,0-.11.16h0s0,0,0,0a0.07,0.07,0,0,1-.11,0,0.08,0.08,0,0,1,0-.09,0.5,0.5,0,0,1,.14-0.21,0.34,0.34,0,0,1,.25-0.13,0.52,0.52,0,0,1,.29,0,0.45,0.45,0,0,1,.23.16s0.05,0.09.09,0.13L105,26.87a0.51,0.51,0,0,1,0,.29,0.53,0.53,0,0,1-.13.27l-0.11.11-0.05.05,0,0,0,0,0,0,0,0-0.07,0a0.33,0.33,0,0,1-.13,0,0.77,0.77,0,0,1-.29,0l-0.07,0a0.09,0.09,0,0,1-.07,0,0.32,0.32,0,0,1-.13-0.09l-0.18-.18a1.36,1.36,0,0,1-.14-0.2l-0.14-.2-0.14-.18-0.07-.11,0-.05a0.09,0.09,0,0,1,0-.05,0.16,0.16,0,0,0-.09-0.05,0.23,0.23,0,0,0-.11,0,3.22,3.22,0,0,0-.32.18c-0.11.09-.21,0.18-0.32,0.29l0,0a2.89,2.89,0,0,1,.34.32,2.68,2.68,0,0,1,.2.23,0.6,0.6,0,0,1,.14.32,0.73,0.73,0,0,1,0,.39,0.54,0.54,0,0,1-.07.18s0,0,0,0l0,0,0,0.05a2.15,2.15,0,0,0-.2.41,1.21,1.21,0,0,0-.13.41,0.55,0.55,0,0,0,0,.18s0,0,0,.05v0a0,0,0,0,0,0,0,0.27,0.27,0,0,0,.07.07,1,1,0,0,0,.39.18H103l0.09,0a0.26,0.26,0,0,0,.16-0.11l0.13-.14,0,0h0v0s0,0,0-.05a0.19,0.19,0,0,0,0-.09,0.22,0.22,0,0,0-.05-0.16,0.28,0.28,0,0,0-.14-0.11,0.79,0.79,0,0,0-.18,0,0.53,0.53,0,0,0-.18,0,0.12,0.12,0,0,1-.13,0,0.11,0.11,0,0,1,0-.13h0a0,0,0,0,0,0,0,0.63,0.63,0,0,1,.25-0.05,0.72,0.72,0,0,1,.27.05,0.49,0.49,0,0,1,.21.16,0.53,0.53,0,0,1,.09.27c0,0.05,0,.09,0,0.13a0.41,0.41,0,0,0,0,.07l0,0,0,0a0.9,0.9,0,0,1-.14.21,0.42,0.42,0,0,1-.21.14l-0.13.05a0.11,0.11,0,0,0-.07,0h-0.18l-0.13,0-0.13-.05L102.32,30l-0.13-.11,0,0s0,0,0,0,0-.05,0-0.07a0.61,0.61,0,0,1-.07-0.29,1.54,1.54,0,0,1,0-.29l0.05-.25c0-.16.27-0.86-0.13-0.93h0a2,2,0,0,0-1.86.73c-0.32.3,0.21,0.77,0.21,0.77s0.23,0.23.36,0.38a0.76,0.76,0,0,1,.16.23,1.23,1.23,0,0,0,.05.14v0.18a0.79,0.79,0,0,1-.11.29s-0.05.09-.09,0.13l-0.05.05,0,0,0,0,0,0,0,0-0.07,0-0.13.05a0.39,0.39,0,0,1-.29,0,0.55,0.55,0,0,1-.25-0.13,0.47,0.47,0,0,0-.11-0.09,0.32,0.32,0,0,1-.09-0.13,0.41,0.41,0,0,1-.07-0.29,0.5,0.5,0,0,1,.11-0.27A0.53,0.53,0,0,1,99.85,30a0.47,0.47,0,0,1,.27-0.07,0.07,0.07,0,0,1,.05,0,0.07,0.07,0,0,1,0,.11,0.11,0.11,0,0,1-.07,0,0.26,0.26,0,0,0-.2,0,0.63,0.63,0,0,0-.16.13,0.38,0.38,0,0,0-.07.18,0.3,0.3,0,0,0,.05.18s0.05,0.05.07,0.09a0.31,0.31,0,0,0,.09.07l0.18,0.09a0.37,0.37,0,0,0,.2,0l0.11-.05,0.05,0,0,0,0,0h0l0,0,0,0,0,0a0.07,0.07,0,0,1,0,0l0.05-.09a0.4,0.4,0,0,0,.05-0.18v0h0V30.24a0.3,0.3,0,0,0,0-.09A1,1,0,0,0,100.5,30l-0.38-.3-0.2-.14-0.11-.09-0.07-.05-0.05.07,0,0-0.13-.14a0.75,0.75,0,0,1-.07-0.18,1.08,1.08,0,0,1,0-.34,3.27,3.27,0,0,1,.21-0.55c0-.09.09-0.14,0.13-0.23h0a6.79,6.79,0,0,1-1,.39h0l-0.07,0a1,1,0,0,1-.39,0l-0.11,0-0.05,0-0.05,0-0.14,0a1.81,1.81,0,0,0-.3-0.05,0.28,0.28,0,0,0-.13,0,0.27,0.27,0,0,0-.13,0l-0.14.05-0.09,0h0l0,0a0.77,0.77,0,0,0-.18.16,0.26,0.26,0,0,0,0,.07v0h0a0.06,0.06,0,0,1,0,0,0.35,0.35,0,0,0,0,.13,0.5,0.5,0,0,0,.05.23,0.56,0.56,0,0,0,.2.16,0.48,0.48,0,0,0,.27.05,0.29,0.29,0,0,0,.2-0.13,0.46,0.46,0,0,0,0-.52h0a0.09,0.09,0,0,1,0-.11,0.08,0.08,0,0,1,.11,0h0a0.66,0.66,0,0,1,.05.75,0.28,0.28,0,0,1-.14.14,1,1,0,0,1-.2.09A0.75,0.75,0,0,1,97,29.43a0.22,0.22,0,0,1-.3-0.11"/><path id="path50" class="cls-1" d="M105.45,31.86a7.3,7.3,0,0,1-2.4,1.59,7.15,7.15,0,0,1-2.72.54h0a7.08,7.08,0,0,1-2.72-.54,7.39,7.39,0,0,1-2.4-1.59A7.24,7.24,0,0,1,97.62,20a7.15,7.15,0,0,1,5.44,0,7.39,7.39,0,0,1,2.4,1.59,7.26,7.26,0,0,1,2.13,5.11A7.26,7.26,0,0,1,105.45,31.86Zm0.2-10.41a7.48,7.48,0,1,0,0,10.57,7.5,7.5,0,0,0,0-10.57"/><path id="path52" class="cls-1" d="M104,30.43a5.22,5.22,0,1,1,1.52-3.68A5.24,5.24,0,0,1,104,30.43h0Zm0.16-7.55a5.39,5.39,0,0,0-3.86-1.59,5.5,5.5,0,0,0-3.86,1.59,5.39,5.39,0,0,0-1.59,3.86,5.5,5.5,0,0,0,1.59,3.86,5.39,5.39,0,0,0,3.86,1.59,5.5,5.5,0,0,0,3.86-1.59,5.42,5.42,0,0,0,1.59-3.86,5.36,5.36,0,0,0-1.59-3.86"/><path id="path54" class="cls-2" d="M104.9,22.94a1,1,0,0,1-.13-0.16l0.63-.55,0.14,0.18-0.64.54h0Zm-0.73-.73,0.27-.34,0.27-.32,0.18,0.14-0.55.63a0.26,0.26,0,0,1-.16-0.11h0Zm1.22,1.41a0.64,0.64,0,0,0-.13-0.18L106,23a1.2,1.2,0,0,1,.13.2Zm-1.93-1.91,0.43-.7,0.2,0.13-0.45.68-0.18-.11h0Zm2.32,2.66-0.09-.2,0.75-.36L106.54,24Zm-3.08-3.06,0.34-.77,0.21,0.11-0.36.75a0.66,0.66,0,0,0-.2-0.09h0Zm3.36,3.84A0.87,0.87,0,0,0,106,25l0.8-.25c0,0.09.05,0.14,0.07,0.23l-0.8.21h0ZM101.91,21l0.21-.8,0.23,0.07-0.25.8a0.64,0.64,0,0,0-.2-0.07h0Zm4.31,5c0-.07,0-0.13,0-0.2l0.82-.13c0,0.09,0,.16,0,0.23Zm-5.15-5.13,0.11-.84,0.23,0-0.13.82A0.94,0.94,0,0,1,101.07,20.86Zm5.19,6V26.62l0.84,0v0.23h-0.84Zm-6-6,0-.84h0.23l0,0.84h-0.2Zm6,6.87c0-.07,0-0.13,0-0.21l0.84,0.11c0,0.09,0,.16,0,0.23l-0.84-.13h0Zm-6.81-6.8-0.13-.82,0.23,0,0.11,0.84a1,1,0,0,0-.21,0h0Zm7.48,7.62c0,0.09-.05.14-0.07,0.23L106,28.5l0.05-.2,0.8,0.21m-8.3-7.42-0.25-.8,0.23-.07L98.76,21Zm7.14,8.19a1.65,1.65,0,0,0,.09-0.18l0.77,0.34-0.11.21-0.75-.38h0ZM97.78,21.4l-0.36-.75,0.21-.11L98,21.31A2.1,2.1,0,0,1,97.78,21.4ZM105.27,30a1.55,1.55,0,0,1,.13-0.18l0.7,0.43c0,0.07-.09.13-0.13,0.2ZM97,21.81l-0.46-.68,0.2-.13,0.43,0.72A0.64,0.64,0,0,1,97,21.81Zm7.71,8.89,0.13-.14,0.64,0.52h0l-0.14.18Zm-8.37-8.37-0.55-.63L96,21.56l0.54,0.64a1,1,0,0,1-.16.13h0Zm8.3,9.59-0.54-.64,0.14-.13,0.55,0.63A0.65,0.65,0,0,1,104.68,31.92Zm-9.53-9.5h0l0.14-.18,0.63,0.55-0.13.14,0,0-0.23-.21-0.39-.32h0Zm8.75,10.07-0.43-.7a0.64,0.64,0,0,0,.18-0.13l0.46,0.68a0.9,0.9,0,0,1-.21.14h0Zm-9.3-9.3a1.2,1.2,0,0,0,.13-0.2l0.68,0.46a1.55,1.55,0,0,1-.13.18l-0.68-.45h0Zm8.46,9.75-0.34-.77,0.18-.09,0.38,0.75ZM94.15,24a2.39,2.39,0,0,0,.11-0.21L95,24.21a1.65,1.65,0,0,0-.09.18L94.15,24h0Zm8,9.21-0.21-.8,0.2-.07,0.25,0.8-0.23.07h0ZM93.84,25c0-.09.05-0.14,0.07-0.23L94.72,25a0.87,0.87,0,0,1-.07.2L93.84,25h0Zm7.35,8.48-0.11-.82,0.21,0,0.13,0.82A0.91,0.91,0,0,1,101.19,33.44Zm-7.56-7.53a1,1,0,0,0,0-.23l0.82,0.13c0,0.07,0,.13,0,0.2l-0.82-.09h0Zm6.62,7.6,0-.84h0.21l0,0.84h-0.25Zm-6.65-6.63V26.64l0.84,0v0.21H93.59Zm5.69,6.55,0.13-.82,0.2,0-0.11.84a0.42,0.42,0,0,0-.21-0.05h0Zm-5.62-5.6a1,1,0,0,0,0-.23l0.84-.11c0,0.07,0,.13,0,0.2l-0.84.14h0Zm4.67,5.38,0.25-.8,0.2,0.05-0.21.8ZM93.9,28.75c0-.09-0.05-0.14-0.07-0.23l0.8-.21a0.87,0.87,0,0,0,.07.2Zm3.56,4.11,0.36-.75a1,1,0,0,0,.2.09L97.67,33a0.8,0.8,0,0,0-.21-0.11h0Zm-3.2-3.2-0.11-.21,0.77-.34L95,29.31Zm2.36,2.7,0.46-.7a1.55,1.55,0,0,1,.18.13l-0.43.72a0.9,0.9,0,0,1-.21-0.14h0Zm-1.9-1.86a1.2,1.2,0,0,1-.13-0.2l0.7-.43a0.64,0.64,0,0,0,.13.18l-0.7.45h0Zm1.11,1.27,0.55-.63a0.49,0.49,0,0,0,.16.13l0,0L96,31.93h0a1.45,1.45,0,0,0-.18-0.16h0Zm-0.52-.5-0.14-.18,0.64-.54a1,1,0,0,1,.13.16l-0.63.55"/><path id="path56" class="cls-1" d="M99.85,18.32a0.5,0.5,0,1,1,.5.5A0.5,0.5,0,0,1,99.85,18.32ZM94,21.13a0.51,0.51,0,0,1,0-.72,0.49,0.49,0,1,1,.7.7,0.46,0.46,0,0,1-.36.14A0.36,0.36,0,0,1,94,21.13Zm11.91,0a0.5,0.5,0,1,1,.34.14A0.77,0.77,0,0,1,106,21.15Zm-14,6.1a0.5,0.5,0,1,1,.5-0.5,0.5,0.5,0,0,1-.5.5h0Zm16.36-.5a0.5,0.5,0,1,1,1,0h0a0.49,0.49,0,0,1-.5.5A0.5,0.5,0,0,1,108.28,26.75ZM106,33.08a0.5,0.5,0,1,1,.34.14A0.64,0.64,0,0,1,106,33.08ZM94,33.1h0a0.55,0.55,0,0,1,0-.73,0.49,0.49,0,0,1,.7,0l0,0h0a0.49,0.49,0,0,1-.36.84A0.62,0.62,0,0,1,94,33.1h0Zm5.81,2.07a0.5,0.5,0,1,1,.5.5,0.49,0.49,0,0,1-.5-0.5"/><path id="path58" d="M114.5,32.35L117,36.67h-5l2.52-4.33h0Zm0-1-3.42,5.88h6.81l-3.4-5.88"/><path id="path60" d="M86.17,32.35l2.49,4.33h-5Zm0-1-3.4,5.88h6.81l-3.42-5.88"/><path id="path62" d="M100.35,7.77l2.49,4.33h-5l2.52-4.33h0Zm0-1.06-3.42,5.9h6.81l-3.4-5.9"/></g><path id="path72" d="M121.92,45a0.74,0.74,0,0,0-.29.05,0.79,0.79,0,0,0-.39.39,0.74,0.74,0,0,0-.05.29,0.81,0.81,0,0,0,.05.29,0.79,0.79,0,0,0,.39.39,0.79,0.79,0,0,0,.57,0,0.79,0.79,0,0,0,.39-0.39,0.79,0.79,0,0,0,0-.57,0.79,0.79,0,0,0-.39-0.39A1.61,1.61,0,0,0,121.92,45Zm0-.11a0.65,0.65,0,0,1,.32.07,0.88,0.88,0,0,1,.27.18,0.64,0.64,0,0,1,.18.27,1,1,0,0,1,.07.34,0.65,0.65,0,0,1-.07.32,0.88,0.88,0,0,1-.18.27,0.64,0.64,0,0,1-.27.18,0.94,0.94,0,0,1-.32.07,0.65,0.65,0,0,1-.32-0.07,0.71,0.71,0,0,1-.27-0.18,0.64,0.64,0,0,1-.18-0.27,0.94,0.94,0,0,1-.07-0.32,0.73,0.73,0,0,1,.07-0.34,0.88,0.88,0,0,1,.18-0.27A0.64,0.64,0,0,1,121.6,45,0.85,0.85,0,0,1,121.92,44.94Zm0,0.48h-0.13v0.32h0.13a0.3,0.3,0,0,0,.16,0,0.17,0.17,0,0,0,0-.25A0.2,0.2,0,0,0,121.88,45.42Zm0-.13a0.51,0.51,0,0,1,.3.07,0.25,0.25,0,0,1,.11.2,0.17,0.17,0,0,1-.07.16,0.47,0.47,0,0,1-.16.09,0.71,0.71,0,0,1,.07.05,0.76,0.76,0,0,1,.09.13l0.14,0.25h-0.21L122,46a0.26,0.26,0,0,0-.13-0.13s-0.07,0-.11,0h-0.09v0.39h-0.16V45.29h0.36Z"/></g></g></svg>