<svg xmlns="http://www.w3.org/2000/svg" width="31.2" height="30" viewBox="0 0 31.2 30"><path fill="none" d="M0 0h31.2v30H0z"/><path fill="#C1D640" d="M30.8 8.6c.3.3.4.8.3 1.2l-1.3 7.5c0 .4-.2.7-.5 1s-.7.4-1 .4H9.2l-.4 2.1H27c.4 0 .8.2 1.1.5.3.3.5.7.5 1.2s-.2.8-.5 1.2c-.3.3-.7.5-1.1.5H6.9c-.5 0-.9-.2-1.2-.6s-.4-.8-.4-1.3l.9-4.7L4.8 4.3 1.1 3.2C.7 3 .4 2.8.2 2.4s-.3-.8-.1-1.3C.2.7.5.3.9.2c.4-.2.8-.3 1.2-.1l4.7 1.5c.3.1.5.3.7.5.3.2.4.5.4.9l.3 2.6L29.7 8c.5 0 .9.3 1.1.6zM9.4 25c.7 0 1.3.2 1.8.7s.7 1.1.7 1.8-.2 1.3-.7 1.8c-.6.4-1.2.7-1.8.7-.7 0-1.3-.2-1.8-.7s-.7-1.1-.7-1.8.2-1.3.7-1.8c.5-.5 1.1-.7 1.8-.7zM24 25c.7 0 1.3.2 1.8.7s.7 1.1.7 1.8-.2 1.3-.7 1.8c-.5.4-1.1.7-1.8.7s-1.3-.2-1.8-.7-.7-1.1-.7-1.8.2-1.3.7-1.8c.6-.5 1.2-.7 1.8-.7z"/></svg>