<?xml version="1.0" encoding="utf-8"?>
<!-- Generator: Adobe Illustrator 19.1.0, SVG Export Plug-In . SVG Version: 6.00 Build 0)  -->
<svg version="1.1" id="Layer_1" xmlns="http://www.w3.org/2000/svg" xmlns:xlink="http://www.w3.org/1999/xlink" x="0px" y="0px"
	 width="16.6px" height="13px" viewBox="-297 390 16.6 13" style="enable-background:new -297 390 16.6 13;" xml:space="preserve">
<style type="text/css">
	.st0{fill:#A2BA0C;}
</style>
<path class="st0" d="M-280.4,394.3v7.3c0,0.4-0.1,0.8-0.4,1c-0.3,0.2-0.6,0.4-1,0.4h-13.6c-0.4,0-0.8-0.1-1-0.4
	c-0.2-0.3-0.4-0.6-0.4-1v-7.3c0.3,0.3,0.6,0.6,0.9,0.8c2.2,1.5,3.8,2.6,4.6,3.2c0.4,0.3,0.6,0.5,0.9,0.6c0.3,0.1,0.5,0.3,0.9,0.4
	c0.4,0.2,0.7,0.2,1,0.2s0.7-0.1,1-0.2c0.4-0.2,0.7-0.3,0.9-0.4c0.2-0.1,0.5-0.3,0.9-0.6c1-0.8,2.6-1.8,4.6-3.2
	C-280.9,394.9-280.6,394.6-280.4,394.3z M-280.4,391.6c0,0.5-0.2,1-0.5,1.4c-0.3,0.4-0.7,0.8-1.1,1.1c-2.3,1.6-3.8,2.6-4.3,3
	c-0.1,0-0.2,0.1-0.4,0.3c-0.2,0.1-0.4,0.3-0.5,0.4c-0.1,0.1-0.3,0.2-0.5,0.3c-0.2,0.1-0.4,0.2-0.5,0.2c-0.2,0.1-0.3,0.1-0.5,0.1
	c-0.1,0-0.3,0-0.5-0.1c-0.2-0.1-0.3-0.1-0.5-0.2c-0.2-0.1-0.3-0.2-0.5-0.3c-0.1-0.1-0.3-0.2-0.5-0.4c-0.2-0.1-0.3-0.2-0.4-0.3
	c-0.6-0.4-1.4-1-2.4-1.7c-1.1-0.7-1.7-1.2-1.9-1.3c-0.4-0.3-0.7-0.6-1.1-1.1s-0.5-0.9-0.5-1.3c0-0.5,0.1-0.9,0.4-1.2
	c0.3-0.3,0.6-0.5,1.1-0.5h13.6c0.4,0,0.7,0.1,1,0.4C-280.5,390.8-280.4,391.2-280.4,391.6z"/>
</svg>
