<svg xmlns="http://www.w3.org/2000/svg" width="16.5" height="13" viewBox="0 1651 16.5 13"><path d="M16.5 1655.2v7.3c0 .4-.1.8-.4 1s-.6.4-1 .4H1.5c-.4 0-.8-.1-1-.4s-.4-.6-.4-1v-7.3c.3.3.6.6.9.8 2.2 1.5 3.8 2.6 4.6 3.2.4.3.6.5.9.6s.5.3.9.4c.4.2.7.2 1 .2.3 0 .7-.1 1-.2.4-.2.7-.3.9-.4.2-.1.5-.3.9-.6 1-.8 2.6-1.8 4.6-3.2.2-.2.5-.5.7-.8zm0-2.7c0 .5-.2 1-.5 1.4-.3.4-.7.8-1.1 1.1-2.3 1.6-3.8 2.6-4.3 3-.1 0-.2.1-.4.3-.2.1-.4.3-.5.4s-.3.2-.5.3c-.2.1-.4.2-.5.2-.2.1-.3.1-.5.1-.1 0-.3 0-.5-.1s-.3-.1-.5-.2-.3-.2-.5-.3c-.1-.1-.3-.2-.5-.4-.2-.1-.3-.2-.4-.3-.6-.4-1.4-1-2.4-1.7-1.1-.7-1.7-1.2-1.9-1.3-.4-.3-.7-.6-1.1-1.1s-.5-.9-.5-1.3c0-.5.1-.9.4-1.2s.6-.5 1.1-.5H15c.4 0 .7.1 1 .4.4.4.5.8.5 1.2z"/></svg>