<svg xmlns="http://www.w3.org/2000/svg" width="17.8" height="15" viewBox="0 43.1 17.8 15"><path d="M9.7 43.1H5.1c-2.1 0-4 1.6-4 3.4 0 1.9 1.4 3.4 3.5 3.4H5c-.1.3-.2.6-.2.9 0 .5.3.9.6 1.3h-.8C2 52 0 53.6 0 55.3 0 57 2.2 58 4.8 58c2.9 0 4.6-1.7 4.6-3.3 0-1.3-.4-2.2-1.6-3-.4-.3-1.2-1-1.2-1.4 0-.5.1-.7.9-1.3.8-.6 1.3-1.4 1.3-2.4 0-1.2-.5-2.3-1.5-2.7h1.5l.9-.8zM8.1 54.4c0 .2.1.3.1.5 0 1.4-.9 2.4-3.4 2.4-1.8 0-3.1-1.1-3.1-2.5 0-1.3 1.6-2.4 3.4-2.4.4 0 .8.1 1.2.2.9.7 1.6 1.1 1.8 1.8zm-2.9-5c-1.2 0-2.3-1.3-2.5-2.9-.2-1.6.6-2.8 1.8-2.7 1.2 0 2.3 1.3 2.5 2.9.2 1.5-.6 2.7-1.8 2.7zm9.2-3v-3.3h-1.1v3.3H10v1.1h3.3v3.3h1.1v-3.3h3.3v-1.1h-3.3z"/></svg>