<?xml version="1.0" encoding="utf-8"?>
<!-- Generator: Adobe Illustrator 19.2.1, SVG Export Plug-In . SVG Version: 6.00 Build 0)  -->
<svg version="1.1" id="Layer_1" xmlns="http://www.w3.org/2000/svg" xmlns:xlink="http://www.w3.org/1999/xlink" x="0px" y="0px"
	 viewBox="0 0 200.4 50" style="enable-background:new 0 0 200.4 50;" xml:space="preserve">
<style type="text/css">
	.st0{fill:#C1D82F;}
	.st1{fill:#FFFFFF;}
</style>
<title>1lulz_logo-small</title>
<g id="g10">
	<g id="g4259">
		<g id="g16">
			<path id="path22" d="M30.3,2.9L9.5,39.1h41.8L30.3,2.9"/>
			<path id="path24" d="M13.1,45.2c0,0,0.1,0,0.1,0c0,0,0,0.1,0,0.1v1.1c0,0,0,0.1,0,0.1c0,0-0.1,0-0.1,0H9.6c-0.1,0-0.1,0-0.1-0.1
				c0,0,0,0,0,0v-5.4c0-0.1,0-0.1,0.1-0.1c0,0,0,0,0,0h1.1c0.1,0,0.1,0,0.1,0.1c0,0,0,0,0,0v4c0,0,0,0.1,0.1,0.1c0,0,0.1,0,0.1,0
				L13.1,45.2"/>
			<path id="path26" d="M19.6,41c0,0,0.1,0.1,0.1,0.1v4.5l0,0c0,0,0,0.1,0,0.1c0,0,0,0.1,0,0.1l-0.8,0.8l-0.1,0c0,0-0.1,0-0.1,0H16
				c0,0-0.1,0-0.1,0c0,0-0.1,0-0.1,0L15,45.8l-0.1-0.1c0,0,0-0.1,0-0.1v-4.5c0-0.1,0.1-0.2,0.2-0.2l0,0h1.1c0.1,0,0.2,0.1,0.2,0.2
				l0,0v4c0,0.1,0.1,0.2,0.2,0.2l0,0h1.6c0,0,0.1,0,0.1,0c0,0,0-0.1,0-0.1v-4c0-0.1,0.1-0.2,0.2-0.2l0,0L19.6,41
				C19.6,40.9,19.7,41,19.6,41"/>
			<path id="path28" d="M25.4,45.2c0,0,0.1,0,0.1,0c0,0,0,0.1,0,0.1v1.1c0,0,0,0.1,0,0.1c0,0-0.1,0-0.1,0h-3.5c-0.1,0-0.1,0-0.1-0.1
				c0,0,0,0,0,0v-5.4c0-0.1,0-0.1,0.1-0.1c0,0,0,0,0,0H23c0.1,0,0.1,0,0.1,0.1c0,0,0,0,0,0v4c0,0,0,0.1,0.1,0.1c0,0,0.1,0,0.1,0
				L25.4,45.2"/>
			<path id="path30" d="M31.5,42.1c0,0,0,0.1,0,0.1c0,0,0,0.1-0.1,0.1l-2.7,3h2.6c0.1,0,0.2,0.1,0.2,0.2l0,0v1
				c0,0.1-0.1,0.2-0.2,0.2l0,0h-4c-0.1,0-0.1,0-0.1-0.1c0,0,0,0,0,0v-1c0,0,0-0.1,0-0.1c0-0.1,0-0.1,0.1-0.1l2.7-3h-2.6
				c-0.1,0-0.2-0.1-0.2-0.2l0,0v-1c0-0.1,0.1-0.2,0.2-0.2l0,0h4c0.1,0,0.2,0.1,0.2,0.2l0,0L31.5,42.1"/>
			<path id="path32" d="M34.9,45.4h2.2v-1.1h-2.2V45.4L34.9,45.4z M34.9,43.2h2.2v-1h-2.2V43.2L34.9,43.2z M38.3,41.8
				c0,0,0,0.1,0.1,0.1c0,0,0,0.1,0,0.1v0.9c0,0,0,0.1,0,0.1c0,0.1,0,0.1-0.1,0.1L38,43.6c0,0,0,0.1,0,0.1c0,0,0,0.1,0.1,0.1l0.3,0.4
				c0,0,0.1,0.1,0.1,0.1c0,0,0,0.1,0,0.1v1c0,0,0,0.1,0,0.1c0,0,0,0.1-0.1,0.1l-0.8,0.8l-0.1,0c0,0-0.1,0-0.1,0h-3.5
				c-0.1,0-0.1,0-0.1-0.1c0,0,0,0,0,0v-5.3c0-0.1,0.1-0.2,0.2-0.2l0,0h3.5c0,0,0.1,0,0.1,0l0.1,0L38.3,41.8"/>
			<path id="path34" d="M41.9,45.3h1.9v-3h-1.9V45.3z M45.2,41.8l0.1,0.1c0,0,0,0.1,0,0.1v3.5c0,0,0,0.1,0,0.1c0,0,0,0.1-0.1,0.1
				l-0.8,0.8l-0.1,0c0,0-0.1,0-0.1,0h-2.6c0,0-0.1,0-0.1,0c0,0-0.1,0-0.1,0l-0.8-0.8l-0.1-0.1c0,0,0-0.1,0-0.1V42c0,0,0-0.1,0-0.1
				c0,0,0-0.1,0.1-0.1l0.8-0.8l0.1,0c0,0,0.1,0,0.1,0h2.6c0,0,0.1,0,0.1,0l0.1,0.1L45.2,41.8"/>
			<path id="path36" d="M51.2,42.2c0,0.1-0.1,0.2-0.2,0.2l0,0h-1.2c0,0-0.1,0-0.1,0c0,0,0,0.1-0.1,0.1v4c0,0,0,0.1,0,0.1
				c0,0-0.1,0-0.1,0h-1.1c-0.1,0-0.2-0.1-0.2-0.2l0,0v-4c0,0,0-0.1,0-0.1c0,0-0.1,0-0.1,0H47c-0.1,0-0.2-0.1-0.2-0.2l0,0v-1.1
				c0-0.1,0-0.1,0.1-0.1c0,0,0,0,0,0h4.2c0.1,0,0.2,0.1,0.2,0.2l0,0L51.2,42.2"/>
			<path id="path38" class="st0" d="M30.3,5l4.9,8.5h-9.9L30.3,5"/>
			<path id="path40" class="st0" d="M11.3,38l4.9-8.5l4.9,8.5H11.3"/>
			<path id="path42" class="st0" d="M22.3,38l-5.5-9.5l8-13.9h11.1l8,13.9L38.4,38H22.3"/>
			<path id="path44" class="st0" d="M39.6,38l5-8.6l5,8.6H39.6"/>
			<path id="path46" d="M30.6,36.9C30.5,37,30.4,37,30.4,37c-0.1,0-0.1,0-0.2-0.1c-0.1-0.1-0.1-0.3-0.2-0.4
				c-0.1-0.2-0.2-0.4-0.3-0.5c-0.1-0.1-0.3-0.2-0.5-0.3c-0.2,0-0.4,0-0.5,0.1c-0.2,0.1-0.3,0.3-0.4,0.4c-0.1,0.1-0.2,0.2-0.3,0.3
				c-0.1,0-0.1,0-0.2,0c-0.1,0-0.1-0.1-0.2-0.1c-0.1-0.1-0.1-0.3-0.1-0.4c0-0.2-0.1-0.4-0.2-0.6c-0.1-0.2-0.2-0.3-0.4-0.4
				c-0.2-0.1-0.4-0.1-0.5,0c-0.2,0.1-0.4,0.2-0.6,0.3c-0.1,0.1-0.2,0.2-0.4,0.3c-0.1,0-0.1,0-0.2,0c-0.1,0-0.1-0.1-0.1-0.2
				c0-0.2,0-0.4,0-0.5c0-0.2,0-0.4,0-0.6c0-0.2-0.1-0.3-0.3-0.5c-0.2-0.1-0.3-0.2-0.5-0.2c-0.2,0-0.4,0.1-0.6,0.2
				c-0.1,0.1-0.3,0.1-0.4,0.2c-0.1,0-0.1,0-0.2-0.1C23,33.9,23,33.9,23,33.8c0-0.1,0.1-0.3,0.2-0.4c0.1-0.2,0.2-0.4,0.2-0.6
				c0-0.2,0-0.4-0.2-0.5C23,32.1,22.9,32,22.7,32c-0.2,0-0.4,0-0.6,0c-0.1,0-0.3,0.1-0.4,0c-0.1,0-0.1-0.1-0.2-0.1
				c0-0.1,0-0.1,0-0.2c0.1-0.1,0.2-0.3,0.3-0.4c0.1-0.2,0.2-0.4,0.3-0.6c0.1-0.2,0.1-0.4,0-0.5c-0.1-0.2-0.2-0.3-0.4-0.4
				c-0.2-0.1-0.4-0.1-0.6-0.2c-0.1,0-0.3,0-0.4-0.1c-0.1,0-0.1-0.1-0.1-0.2c0-0.1,0-0.1,0-0.2c0.1-0.1,0.2-0.2,0.3-0.3
				c0.2-0.1,0.3-0.3,0.4-0.4c0.1-0.2,0.1-0.3,0.1-0.5c0-0.2-0.1-0.4-0.3-0.5c-0.2-0.1-0.3-0.2-0.5-0.3c-0.1,0-0.2-0.1-0.3-0.1
				c-0.1-0.1-0.1-0.1-0.1-0.2c0-0.1,0-0.2,0.1-0.2c0.1-0.1,0.3-0.1,0.4-0.2c0.2-0.1,0.4-0.2,0.5-0.3c0.1-0.1,0.2-0.3,0.3-0.5
				c0-0.2,0-0.4-0.1-0.5c-0.1-0.2-0.3-0.3-0.4-0.5c-0.1-0.1-0.2-0.2-0.3-0.3c0-0.1,0-0.1,0-0.2c0-0.1,0.1-0.1,0.1-0.1
				c0.1-0.1,0.3-0.1,0.4-0.1c0.2,0,0.4-0.1,0.6-0.2c0.2-0.1,0.3-0.2,0.4-0.4c0.1-0.2,0.1-0.4,0-0.5c-0.1-0.2-0.2-0.4-0.3-0.5
				c-0.1-0.1-0.2-0.2-0.3-0.4c0-0.1,0-0.1,0-0.2c0-0.1,0.1-0.1,0.2-0.1c0.2,0,0.3,0,0.4,0c0.2,0,0.4,0,0.6,0c0.2,0,0.3-0.1,0.4-0.3
				c0.1-0.2,0.2-0.3,0.2-0.5c0-0.2-0.1-0.4-0.2-0.6C23.1,20,23,19.9,23,19.7c0-0.1,0-0.1,0.1-0.2c0.1-0.1,0.1-0.1,0.2-0.1
				c0.1,0,0.3,0.1,0.4,0.2c0.2,0.1,0.4,0.2,0.6,0.2c0.2,0,0.4,0,0.5-0.2c0.1-0.1,0.2-0.3,0.3-0.5c0-0.2,0-0.4,0-0.6
				c0-0.1-0.1-0.3-0.1-0.5c0-0.1,0.1-0.1,0.1-0.2c0.1,0,0.1,0,0.2,0c0.1,0.1,0.3,0.2,0.4,0.3c0.2,0.1,0.3,0.2,0.6,0.3
				c0.2,0.1,0.4,0.1,0.5,0c0.2-0.1,0.3-0.2,0.4-0.4c0.1-0.2,0.1-0.4,0.2-0.6c0-0.2,0-0.4,0.1-0.5c0-0.1,0.1-0.1,0.2-0.1
				c0.1,0,0.1,0,0.2,0c0.1,0.1,0.2,0.2,0.3,0.3c0.1,0.2,0.3,0.3,0.4,0.4c0.2,0.1,0.3,0.1,0.5,0.1c0.2,0,0.4-0.1,0.5-0.3
				c0.1-0.2,0.2-0.3,0.3-0.5c0-0.1,0.1-0.3,0.2-0.4c0.1-0.1,0.1-0.1,0.2-0.1c0.1,0,0.1,0,0.2,0.1c0.1,0.1,0.1,0.3,0.2,0.4
				c0.1,0.2,0.2,0.4,0.3,0.5c0.1,0.1,0.3,0.2,0.5,0.3c0.2,0,0.4,0,0.5-0.1c0.2-0.1,0.3-0.3,0.4-0.4c0.1-0.1,0.2-0.2,0.3-0.3
				c0.1,0,0.1,0,0.2,0c0.1,0,0.1,0.1,0.2,0.1c0.1,0.1,0.1,0.3,0.1,0.4c0,0.2,0.1,0.4,0.2,0.6c0.1,0.2,0.2,0.3,0.4,0.4
				c0.2,0.1,0.4,0.1,0.5,0c0.2-0.1,0.4-0.2,0.6-0.3c0.1-0.1,0.2-0.2,0.4-0.3c0.1,0,0.1,0,0.2,0c0.1,0,0.1,0.1,0.1,0.2
				c0,0.2,0,0.3-0.1,0.5c0,0.2,0,0.4,0,0.6c0,0.2,0.1,0.3,0.3,0.5c0.2,0.1,0.3,0.2,0.5,0.2c0.2,0,0.4-0.1,0.6-0.2
				c0.1-0.1,0.3-0.1,0.4-0.2c0.1,0,0.1,0,0.2,0.1c0.1,0.1,0.1,0.1,0.1,0.2c0,0.1-0.1,0.3-0.2,0.4c-0.1,0.2-0.2,0.4-0.2,0.6
				c0,0.2,0.1,0.4,0.2,0.5c0.1,0.1,0.3,0.2,0.4,0.3c0.2,0,0.4,0,0.6,0c0.1,0,0.3-0.1,0.4,0c0.1,0,0.1,0.1,0.2,0.1c0,0.1,0,0.1,0,0.2
				c-0.1,0.1-0.2,0.3-0.3,0.4c-0.1,0.2-0.2,0.3-0.3,0.5c-0.1,0.2-0.1,0.4,0,0.5c0.1,0.2,0.2,0.3,0.4,0.4c0.2,0.1,0.4,0.1,0.6,0.2
				c0.1,0,0.3,0,0.4,0.1c0.1,0,0.1,0.1,0.1,0.2c0,0.1,0,0.1,0,0.2c-0.1,0.1-0.2,0.2-0.3,0.3c-0.2,0.1-0.3,0.3-0.4,0.4
				c-0.1,0.2-0.1,0.3-0.1,0.5c0,0.2,0.1,0.4,0.3,0.5c0.2,0.1,0.3,0.2,0.5,0.3c0.1,0,0.3,0.1,0.4,0.2c0.1,0.1,0.1,0.1,0.1,0.2
				c0,0.1,0,0.1-0.1,0.2c-0.1,0.1-0.3,0.1-0.4,0.2c-0.2,0.1-0.4,0.2-0.5,0.3c-0.1,0.1-0.2,0.3-0.3,0.5c0,0.2,0,0.4,0.1,0.5
				c0.1,0.2,0.3,0.3,0.4,0.5c0.1,0.1,0.2,0.2,0.3,0.3c0,0.1,0,0.1,0,0.2c0,0.1-0.1,0.1-0.1,0.2c-0.1,0.1-0.3,0.1-0.4,0.1
				c-0.2,0-0.4,0.1-0.6,0.2c-0.2,0.1-0.3,0.2-0.4,0.4c-0.1,0.2-0.1,0.4,0,0.5c0.1,0.2,0.2,0.4,0.3,0.5c0.1,0.1,0.2,0.2,0.3,0.4
				c0,0.1,0,0.1,0,0.2c0,0.1-0.1,0.1-0.2,0.1c-0.2,0-0.3,0-0.4,0c-0.2,0-0.4,0-0.6,0c-0.2,0-0.3,0.1-0.4,0.3
				c-0.1,0.2-0.2,0.3-0.2,0.5c0,0.2,0.1,0.4,0.2,0.6c0.1,0.1,0.1,0.3,0.2,0.4c0,0.1,0,0.1-0.1,0.2c-0.1,0.1-0.1,0.1-0.2,0.1
				c-0.2,0-0.3-0.1-0.5-0.1c-0.2-0.1-0.4-0.2-0.6-0.2c-0.2,0-0.4,0-0.5,0.2c-0.1,0.1-0.2,0.3-0.3,0.5c0,0.2,0,0.4,0,0.6
				c0,0.1,0.1,0.3,0.1,0.5c0,0.1-0.1,0.1-0.1,0.2c-0.1,0-0.1,0-0.2,0c-0.1-0.1-0.3-0.2-0.4-0.3c-0.2-0.1-0.3-0.2-0.6-0.3
				c-0.2-0.1-0.4-0.1-0.5,0c-0.2,0.1-0.3,0.2-0.4,0.4c-0.1,0.2-0.1,0.4-0.2,0.6c0,0.1,0,0.3-0.1,0.4c0,0.1-0.1,0.1-0.2,0.1
				c-0.1,0-0.1,0-0.2,0c-0.1-0.1-0.2-0.2-0.3-0.3c-0.1-0.2-0.3-0.3-0.4-0.4c-0.2-0.1-0.3-0.1-0.5-0.1c-0.2,0-0.4,0.1-0.5,0.3
				c-0.1,0.2-0.2,0.3-0.3,0.5C30.7,36.7,30.6,36.8,30.6,36.9"/>
			<path id="path48" class="st1" d="M26.7,29.3c0-0.1-0.1-0.1-0.1-0.2c0-0.1,0-0.1,0-0.2c0-0.1,0-0.1,0-0.2c0,0,0,0,0,0l0,0l0,0
				l0.1-0.1c0.1-0.1,0.2-0.2,0.3-0.3H27l0,0l0,0h0.1c0.1-0.1,0.2-0.2,0.3-0.3c0.1,0,0.1-0.1,0.2,0c0.1,0,0.1,0,0.2,0
				c0.1,0,0.3,0,0.4,0h0.2h0.1c0.1,0,0.3,0,0.4-0.1l0,0c0,0,0.1,0,0.1-0.1l0.2-0.2l0,0c0.1-0.1,0.1-0.1,0.2-0.2
				c0.1-0.1,0.1-0.1,0-0.1H29l0,0c-0.1,0-0.2,0-0.4,0c-0.1,0-0.3,0-0.4,0c-0.1,0-0.1,0-0.2,0c-0.1,0-0.2-0.1-0.2-0.1
				c-0.1-0.1-0.1-0.1-0.2-0.2l-0.1-0.1c0,0,0-0.1,0-0.1c0-0.1-0.1-0.2-0.1-0.3c-0.1-0.1-0.1-0.2-0.1-0.3c0-0.1-0.1-0.2-0.2-0.2
				c-0.1,0-0.2,0-0.3,0c-0.1,0-0.2,0-0.3,0l0,0l0,0l-0.1,0c0,0-0.1,0.1-0.1,0.1c-0.1,0.1-0.1,0.2-0.1,0.3c0,0,0,0.1,0,0.1l0,0l0,0
				l0,0l0,0l0,0v0c0.1,0.1,0.2,0.1,0.3,0.1c0.1,0,0.2,0.1,0.3,0c0.1,0,0.1-0.1,0.1-0.2l0,0c0,0,0.1-0.1,0.1,0c0,0,0.1,0.1,0.1,0.1
				c0,0.1,0,0.1-0.1,0.2c0,0.1-0.1,0.1-0.1,0.1C27,27,26.8,27,26.7,27c-0.1,0-0.1,0-0.2,0c-0.1,0-0.1-0.1-0.2-0.1
				c0,0-0.1-0.1-0.1-0.1l0,0l0,0l0,0l0,0c0-0.1,0-0.1-0.1-0.2c0-0.1,0-0.3,0.1-0.4c0-0.1,0-0.2,0.1-0.3l0.1-0.1h0.1h0.1
				c0.1-0.1,0.3-0.1,0.4-0.1c0.1,0,0.3,0.1,0.4,0.1c0.1,0.1,0.2,0.2,0.3,0.3c0.1,0.1,0.1,0.2,0.2,0.3c0.1,0.1,0.1,0.2,0.1,0.3
				l0.1,0.1V27c0,0,0.1,0,0.1,0c0,0,0.1,0,0.1,0c0.1,0,0.2,0,0.3,0c0.1,0,0.1-0.1,0.2-0.1c0.1-0.1,0.1-0.1,0.2-0.2
				c-0.2-0.3-0.2-0.7-0.1-1c-0.1-0.1-0.2-0.2-0.2-0.3c-0.1-0.1-0.2-0.3-0.2-0.4c0-0.1,0-0.2-0.1-0.2c0-0.1,0-0.2,0-0.3
				c0,0,0-0.1,0-0.1l0,0l0,0l0,0l0,0c0-0.1,0.1-0.1,0.1-0.2c0-0.1,0.1-0.2,0.1-0.3c0,0,0-0.1,0-0.1c0,0,0,0,0,0l-0.1-0.1
				c-0.1-0.2-0.2-0.3-0.4-0.4c-0.2,0-0.3,0.1-0.4,0.2c0,0,0,0,0,0.1l0,0l0,0c0,0,0,0.1,0,0.1c0,0.1,0,0.1,0.1,0.2
				c0.1,0,0.1,0.1,0.2,0.1c0.1,0,0.2,0,0.3-0.1l0,0c0,0,0.1,0,0.1,0c0,0,0,0,0,0c0,0,0,0.1,0,0.1c0,0,0,0,0,0l0,0
				c-0.1,0-0.1,0.1-0.1,0.1l-0.2,0c-0.1,0-0.3,0-0.4-0.1c-0.1,0-0.1,0-0.2,0c0,0,0-0.1,0-0.1c0-0.1,0-0.1,0-0.2l0,0c0,0,0,0,0,0
				c0,0,0-0.1,0-0.1c0.1-0.1,0.1-0.2,0.3-0.3c0.1-0.1,0.3-0.2,0.5-0.2c0.1,0,0.3,0,0.4,0.1c0.1,0.1,0.2,0.1,0.3,0.2l0,0l0,0
				c0,0,0,0.1,0.1,0.1c0,0,0.1,0.1,0.1,0.1c0,0.1,0,0.2,0,0.3c0,0.1,0,0.3-0.1,0.4c0,0.1,0,0.1,0,0.2v0l0,0v0.1c0,0.1,0,0.2,0.1,0.2
				c0.1,0.1,0.1,0.1,0.2,0.2c0.1,0.1,0.1,0.1,0.2,0.1c0.5-0.3,1.1-0.2,1.6,0.1c0.1-0.1,0.1-0.1,0.2-0.2l0,0l0,0
				c0-0.1,0.1-0.1,0.1-0.2c0-0.1,0.1-0.1,0.1-0.2c0-0.1,0-0.1,0-0.2c0-0.1,0-0.1-0.1-0.1l-0.1-0.1v0l0,0c-0.1,0-0.1-0.1-0.2-0.2
				c-0.1-0.1-0.3-0.2-0.4-0.3c-0.1-0.1-0.1-0.1-0.2-0.2c0,0-0.1-0.1-0.1-0.1c-0.1,0-0.1,0-0.1-0.1v0c0-0.1,0-0.2,0-0.3
				c0,0,0-0.1,0.1-0.1c0,0,0,0,0-0.1l0,0l0,0l0,0l0,0l0,0l0,0l0.1,0c0,0,0.1-0.1,0.1-0.1c0.1,0,0.2-0.1,0.3-0.1c0.1,0,0.2,0,0.3,0.1
				c0,0,0.1,0,0.1,0.1c0.1,0,0.1,0.1,0.1,0.1c0.1,0.1,0.1,0.2,0.1,0.3c0,0.1,0,0.2-0.1,0.3c0,0.1-0.1,0.2-0.2,0.2
				c-0.1,0.1-0.2,0.1-0.3,0.1l0,0c0,0-0.1,0-0.1-0.1c0,0,0-0.1,0.1-0.1l0,0c0.1,0,0.1,0,0.2-0.1c0.1,0,0.1-0.1,0.1-0.2
				c0-0.1,0-0.1,0-0.2c0-0.1-0.1-0.1-0.1-0.2c0,0-0.1,0-0.1,0l-0.1,0c-0.1,0-0.1,0-0.2,0c-0.1,0-0.1,0-0.2,0.1c0,0-0.1,0-0.1,0.1
				l0,0l0,0l0,0l0,0l0,0l0,0c0,0,0,0,0,0c0,0,0,0.1,0,0.1c0,0.1,0,0.1,0,0.2l0,0l0,0l0,0l0,0c0,0,0,0,0.1,0.1c0,0,0.1,0.1,0.2,0.1
				c0.1,0.1,0.3,0.2,0.4,0.3l0.2,0.2h0.1l0.1,0c0,0,0.1,0.1,0.1,0.1c0.1,0.1,0.1,0.2,0.1,0.3c0,0.1,0,0.2,0,0.3c0,0.1,0,0.2-0.1,0.3
				l-0.1,0.3c0,0.1-0.1,0.1-0.1,0.2l0,0c0,0-0.2,0.5,0.2,0.1l0,0l0,0l0.1-0.1c0.1-0.1,0.2-0.2,0.3-0.3c0.1-0.1,0.2-0.2,0.2-0.4
				c0,0,0-0.1,0-0.1v-0.1l0.1-0.3l0.1-0.2c0-0.1,0-0.2,0.1-0.3c0-0.1,0.1-0.2,0.1-0.3l0.1-0.1l0.1-0.1c0.1-0.1,0.2-0.1,0.3-0.1
				l0.1,0h0.1l0,0c0,0,0.1,0,0.1,0h0.1c0,0,0.1,0,0.1,0c0.1,0,0.2,0.1,0.2,0.2c0.1,0.1,0.1,0.2,0.1,0.3c0,0,0,0.1,0,0.1
				c0,0,0,0.1,0,0.1c0,0.1-0.1,0.2-0.1,0.3c-0.1,0.1-0.2,0.1-0.3,0.1c-0.1,0-0.2,0-0.3,0c-0.1,0-0.2-0.1-0.3-0.1l0,0
				c0,0,0-0.1,0-0.1c0,0,0.1,0,0.1,0l0,0c0.1,0,0.1,0.1,0.2,0.1c0.1,0,0.2,0,0.2,0c0.1,0,0.1-0.1,0.2-0.1c0.1,0,0.1-0.1,0.1-0.2
				v-0.1c0,0,0-0.1,0-0.1c0-0.1-0.1-0.1-0.1-0.2c-0.1-0.1-0.1-0.1-0.2-0.1c0,0-0.1,0-0.1,0h-0.1h-0.1c0,0-0.1,0-0.1,0l-0.1,0
				c-0.1,0-0.1,0.1-0.2,0.1c0,0-0.1,0-0.1,0.1c0,0,0,0.1-0.1,0.1c0,0.1-0.1,0.1-0.1,0.2c-0.1,0.2-0.1,0.3-0.1,0.5v0.4
				c0,0,0,0.1,0,0.1c0,0.2-0.1,0.4-0.1,0.5c-0.1,0.2-0.2,0.3-0.3,0.5c-0.1,0.1-0.2,0.3-0.3,0.4s0,0,0,0c0.1-0.1,0.2-0.1,0.3-0.1
				l0.3-0.1c0.1,0,0.2-0.1,0.3-0.1c0.1,0,0.3,0,0.4,0.1c0.1,0,0.1,0.1,0.2,0.1l0.1,0.1v0v0l0.1,0.1l0.1,0.2c0.1,0.1,0.1,0.3,0.2,0.4
				c0,0.1,0.1,0.1,0.1,0.2l0.1,0l0,0h0.1c0.1,0,0.1,0,0.2,0h0.1h0.1l0,0l0,0l0,0l0,0l0,0l0,0c0,0,0.1,0,0.1-0.1
				c0-0.1,0.1-0.1,0.1-0.2c0-0.1,0-0.1,0-0.2c0,0,0-0.1,0-0.1c0,0,0-0.1-0.1-0.1c0-0.1-0.1-0.1-0.1-0.1c-0.1,0-0.1,0-0.2,0
				c-0.1,0-0.1,0.1-0.2,0.1c0,0-0.1,0.1-0.1,0.2l0,0l0,0c0,0-0.1,0-0.1,0c0,0,0,0,0,0c0,0,0-0.1,0-0.1c0-0.1,0.1-0.2,0.1-0.2
				c0.1-0.1,0.2-0.1,0.3-0.1c0.1,0,0.2,0,0.3,0c0.1,0,0.2,0.1,0.2,0.2c0,0,0.1,0.1,0.1,0.1l0.2,0.1c0,0.1,0,0.2,0,0.3
				c0,0.1-0.1,0.2-0.1,0.3l-0.1,0.1l-0.1,0l0,0l0,0l0,0l0,0h-0.1c0,0-0.1,0-0.1,0c-0.1,0-0.2,0-0.3,0h-0.1c0,0,0,0-0.1,0
				c-0.1,0-0.1,0-0.1-0.1l-0.2-0.2c-0.1-0.1-0.1-0.1-0.1-0.2l-0.1-0.2l-0.1-0.2l-0.1-0.1v0c0,0,0,0,0,0c0,0-0.1,0-0.1,0
				c0,0-0.1,0-0.1,0c-0.1,0.1-0.2,0.1-0.3,0.2c-0.1,0.1-0.2,0.2-0.3,0.3l0,0c0.1,0.1,0.2,0.2,0.3,0.3c0.1,0.1,0.1,0.1,0.2,0.2
				c0.1,0.1,0.1,0.2,0.1,0.3c0,0.1,0,0.3,0,0.4c0,0.1,0,0.1-0.1,0.2l0,0l0,0v0c-0.1,0.1-0.1,0.3-0.2,0.4c-0.1,0.1-0.1,0.3-0.1,0.4
				c0,0.1,0,0.1,0,0.2c0,0,0,0,0,0l0,0l0,0c0,0,0,0.1,0.1,0.1c0.1,0.1,0.2,0.1,0.4,0.2H33h0.1c0.1,0,0.1-0.1,0.2-0.1l0.1-0.1l0,0
				l0,0l0,0c0,0,0,0,0,0c0,0,0-0.1,0-0.1c0-0.1,0-0.1-0.1-0.2c0-0.1-0.1-0.1-0.1-0.1c-0.1,0-0.1,0-0.2,0c-0.1,0-0.1,0-0.2,0
				c0,0-0.1,0-0.1,0c0,0,0-0.1,0-0.1l0,0l0,0c0.1,0,0.2-0.1,0.3,0c0.1,0,0.2,0,0.3,0c0.1,0,0.2,0.1,0.2,0.2c0.1,0.1,0.1,0.2,0.1,0.3
				c0,0,0,0.1,0,0.1c0,0,0,0,0,0.1l0,0l0,0c0,0.1-0.1,0.1-0.1,0.2c-0.1,0.1-0.1,0.1-0.2,0.1L33,30c0,0,0,0-0.1,0h-0.2h-0.1l-0.1,0
				L32.3,30l-0.1-0.1l0,0l0,0c0,0,0,0,0-0.1c0-0.1-0.1-0.2-0.1-0.3c0-0.1,0-0.2,0-0.3l0.1-0.3c0-0.2,0.3-0.9-0.1-0.9l0,0
				c-0.7-0.1-1.4,0.2-1.9,0.7c-0.3,0.3,0.2,0.8,0.2,0.8s0.2,0.2,0.4,0.4c0.1,0.1,0.1,0.1,0.2,0.2c0,0,0,0.1,0.1,0.1v0.2
				c0,0.1-0.1,0.2-0.1,0.3c0,0-0.1,0.1-0.1,0.1l-0.1,0l0,0l0,0l0,0l0,0h-0.1l-0.1,0c-0.1,0-0.2,0-0.3,0c-0.1,0-0.2-0.1-0.3-0.1
				c0,0-0.1-0.1-0.1-0.1c0,0-0.1-0.1-0.1-0.1c-0.1-0.1-0.1-0.2-0.1-0.3c0-0.1,0-0.2,0.1-0.3c0,0,0-0.1,0-0.1
				c0.1-0.1,0.2-0.1,0.3-0.1c0,0,0,0,0.1,0c0,0,0,0.1,0,0.1c0,0,0,0,0,0c0,0,0,0-0.1,0c-0.1,0-0.1,0-0.2,0c-0.1,0-0.1,0.1-0.2,0.1
				c0,0.1-0.1,0.1-0.1,0.2c0,0.1,0,0.1,0.1,0.2c0,0,0.1,0,0.1,0.1c0,0,0.1,0.1,0.1,0.1l0.2,0.1c0.1,0,0.1,0,0.2,0l0.1,0h0.1l0,0l0,0
				l0,0l0,0l0,0l0,0l0,0l0.1-0.1c0-0.1,0-0.1,0.1-0.2l0,0l0,0v-0.2c0,0,0-0.1,0-0.1c0-0.1,0-0.1,0-0.1l-0.4-0.3l-0.2-0.1l-0.1-0.1
				l-0.1,0l-0.1,0.1l0,0l-0.1-0.1c0-0.1-0.1-0.1-0.1-0.2c0-0.1,0-0.2,0-0.3c0.1-0.2,0.1-0.4,0.2-0.5c0-0.1,0.1-0.1,0.1-0.2l0,0
				c-0.3,0.2-0.7,0.3-1,0.4l0,0h-0.1c-0.1,0-0.3,0-0.4,0h-0.1h-0.1h-0.1H28c-0.1,0-0.2,0-0.3,0c0,0-0.1,0-0.1,0c0,0-0.1,0-0.1,0
				l-0.1,0h-0.1l0,0l0,0c-0.1,0-0.1,0.1-0.2,0.2c0,0,0,0,0,0.1l0,0l0,0l0,0c0,0,0,0.1,0,0.1c0,0.1,0,0.2,0.1,0.2
				c0.1,0.1,0.1,0.1,0.2,0.2c0.1,0,0.2,0.1,0.3,0c0.1,0,0.2-0.1,0.2-0.1c0.1-0.2,0.1-0.4,0-0.5l0,0c0,0,0-0.1,0-0.1c0,0,0.1,0,0.1,0
				l0,0c0.2,0.2,0.2,0.5,0.1,0.8c0,0.1-0.1,0.1-0.1,0.1c-0.1,0-0.1,0.1-0.2,0.1c-0.2,0.1-0.4,0.1-0.6,0
				C26.9,29.5,26.8,29.4,26.7,29.3C26.7,29.3,26.7,29.3,26.7,29.3"/>
			<path id="path50" class="st0" d="M35.4,31.9c-0.7,0.7-1.5,1.2-2.4,1.6c-0.9,0.4-1.8,0.5-2.7,0.5l0,0c-0.9,0-1.9-0.2-2.7-0.5
				c-0.9-0.4-1.7-0.9-2.4-1.6c-2.8-2.8-2.9-7.4,0-10.2c0.7-0.7,1.5-1.3,2.4-1.6c1.7-0.7,3.7-0.7,5.4,0c0.9,0.4,1.7,0.9,2.4,1.6
				c1.4,1.4,2.1,3.2,2.1,5.1C37.6,28.6,36.8,30.5,35.4,31.9z M35.6,21.5c-2.9-2.9-7.7-2.9-10.6,0s-2.9,7.7,0,10.6
				c2.9,2.9,7.7,2.9,10.6,0c0,0,0,0,0,0C38.6,29.1,38.6,24.4,35.6,21.5"/>
			<path id="path52" class="st0" d="M34,30.4c-2,2-5.3,2.1-7.4,0s-2.1-5.3,0-7.4c2-2,5.3-2.1,7.4,0c1,1,1.5,2.3,1.5,3.7
				C35.5,28.1,35,29.5,34,30.4L34,30.4z M34.2,22.9c-1-1-2.4-1.6-3.9-1.6c-1.4,0-2.8,0.6-3.9,1.6c-1,1-1.6,2.4-1.6,3.9
				c0,1.4,0.6,2.8,1.6,3.9c1,1,2.4,1.6,3.9,1.6c1.4,0,2.8-0.6,3.9-1.6c1-1,1.6-2.4,1.6-3.9C35.8,25.3,35.2,23.9,34.2,22.9"/>
			<path id="path54" class="st1" d="M34.9,22.9c0,0-0.1-0.1-0.1-0.2l0.6-0.5l0.1,0.2L34.9,22.9L34.9,22.9L34.9,22.9z M34.2,22.2
				l0.3-0.3l0.3-0.3l0.2,0.1l-0.6,0.6C34.3,22.3,34.2,22.3,34.2,22.2L34.2,22.2L34.2,22.2z M35.4,23.6c0-0.1-0.1-0.1-0.1-0.2L36,23
				c0,0.1,0.1,0.1,0.1,0.2L35.4,23.6z M33.5,21.7l0.4-0.7l0.2,0.1l-0.4,0.7L33.5,21.7C33.5,21.7,33.5,21.7,33.5,21.7z M35.8,24.4
				l-0.1-0.2l0.8-0.4l0.1,0.2L35.8,24.4z M32.7,21.3l0.3-0.8l0.2,0.1l-0.4,0.8C32.8,21.4,32.8,21.3,32.7,21.3L32.7,21.3L32.7,21.3z
				 M36.1,25.2c0-0.1,0-0.1-0.1-0.2l0.8-0.3c0,0.1,0.1,0.1,0.1,0.2L36.1,25.2L36.1,25.2L36.1,25.2z M31.9,21l0.2-0.8l0.2,0.1
				l-0.3,0.8C32,21,32,21,31.9,21L31.9,21L31.9,21z M36.2,26c0-0.1,0-0.1,0-0.2l0.8-0.1c0,0.1,0,0.2,0,0.2L36.2,26z M31.1,20.9
				l0.1-0.8h0.2l-0.1,0.8C31.2,20.9,31.1,20.9,31.1,20.9L31.1,20.9z M36.3,26.9v-0.2h0.8v0.2L36.3,26.9L36.3,26.9z M30.3,20.9V20
				h0.2v0.8H30.3L30.3,20.9z M36.3,27.7c0-0.1,0-0.1,0-0.2l0.8,0.1c0,0.1,0,0.2,0,0.2L36.3,27.7C36.3,27.7,36.3,27.7,36.3,27.7z
				 M29.5,20.9l-0.1-0.8h0.2l0.1,0.8C29.6,21,29.5,21,29.5,20.9L29.5,20.9L29.5,20.9z M36.9,28.6c0,0.1-0.1,0.1-0.1,0.2L36,28.5
				l0.1-0.2L36.9,28.6 M28.6,21.1l-0.3-0.8l0.2-0.1l0.2,0.8L28.6,21.1z M35.7,29.3c0-0.1,0.1-0.1,0.1-0.2l0.8,0.3l-0.1,0.2
				L35.7,29.3L35.7,29.3L35.7,29.3z M27.8,21.4l-0.4-0.8l0.2-0.1l0.4,0.8C27.9,21.3,27.9,21.4,27.8,21.4z M35.3,30
				c0-0.1,0.1-0.1,0.1-0.2l0.7,0.4c0,0.1-0.1,0.1-0.1,0.2L35.3,30z M27,21.8l-0.5-0.7l0.2-0.1l0.4,0.7C27.1,21.8,27.1,21.8,27,21.8z
				 M34.7,30.7l0.1-0.1l0.6,0.5l0,0l-0.1,0.2L34.7,30.7z M26.3,22.3l-0.6-0.6l0.2-0.1l0.5,0.6C26.5,22.2,26.4,22.3,26.3,22.3
				L26.3,22.3L26.3,22.3z M34.6,31.9l-0.5-0.6l0.1-0.1l0.6,0.6C34.8,31.8,34.7,31.9,34.6,31.9L34.6,31.9z M25.1,22.4L25.1,22.4
				l0.1-0.2l0.6,0.5l-0.1,0.1l0,0l-0.2-0.2L25.1,22.4L25.1,22.4L25.1,22.4z M33.9,32.5l-0.4-0.7c0.1,0,0.1-0.1,0.2-0.1l0.5,0.7
				C34,32.4,33.9,32.4,33.9,32.5L33.9,32.5L33.9,32.5z M24.6,23.2c0-0.1,0.1-0.1,0.1-0.2l0.7,0.5c0,0.1-0.1,0.1-0.1,0.2L24.6,23.2
				L24.6,23.2L24.6,23.2z M33,32.9l-0.3-0.8l0.2-0.1l0.4,0.8L33,32.9z M24.2,24c0-0.1,0.1-0.1,0.1-0.2l0.7,0.4
				c0,0.1-0.1,0.1-0.1,0.2L24.2,24L24.2,24z M32.2,33.2l-0.2-0.8l0.2-0.1l0.3,0.8L32.2,33.2L32.2,33.2L32.2,33.2z M23.8,25
				c0-0.1,0.1-0.1,0.1-0.2l0.8,0.2c0,0.1,0,0.1-0.1,0.2L23.8,25L23.8,25z M31.2,33.5l-0.1-0.8h0.2l0.1,0.8
				C31.3,33.5,31.3,33.5,31.2,33.5L31.2,33.5z M23.6,25.9c0-0.1,0-0.2,0-0.2l0.8,0.1c0,0.1,0,0.1,0,0.2L23.6,25.9L23.6,25.9
				L23.6,25.9z M30.3,33.5v-0.8h0.2v0.8H30.3L30.3,33.5z M23.6,26.9v-0.3h0.8v0.2L23.6,26.9L23.6,26.9z M29.3,33.5l0.1-0.8h0.2
				l-0.1,0.8C29.4,33.5,29.4,33.4,29.3,33.5L29.3,33.5L29.3,33.5z M23.7,27.9c0-0.1,0-0.2,0-0.2l0.8-0.1c0,0.1,0,0.1,0,0.2
				L23.7,27.9L23.7,27.9z M28.3,33.2l0.3-0.8l0.2,0l-0.2,0.8L28.3,33.2z M23.9,28.8c0-0.1-0.1-0.1-0.1-0.2l0.8-0.2
				c0,0.1,0,0.1,0.1,0.2L23.9,28.8z M27.5,32.9l0.4-0.8c0.1,0,0.1,0.1,0.2,0.1L27.7,33C27.6,33,27.5,32.9,27.5,32.9L27.5,32.9
				L27.5,32.9z M24.3,29.7l-0.1-0.2l0.8-0.3l0.1,0.2L24.3,29.7z M26.6,32.4l0.5-0.7c0.1,0,0.1,0.1,0.2,0.1l-0.4,0.7
				C26.8,32.5,26.7,32.4,26.6,32.4L26.6,32.4L26.6,32.4z M24.7,30.5c0-0.1-0.1-0.1-0.1-0.2l0.7-0.4c0,0.1,0.1,0.1,0.1,0.2L24.7,30.5
				L24.7,30.5z M25.8,31.8l0.6-0.6c0,0.1,0.1,0.1,0.2,0.1l0,0L26,31.9l0,0C25.9,31.9,25.9,31.8,25.8,31.8L25.8,31.8L25.8,31.8z
				 M25.3,31.3l-0.1-0.2l0.6-0.5c0,0,0.1,0.1,0.1,0.2L25.3,31.3"/>
			<path id="path56" class="st0" d="M29.8,18.3c0-0.3,0.2-0.5,0.5-0.5s0.5,0.2,0.5,0.5s-0.2,0.5-0.5,0.5S29.8,18.6,29.8,18.3z
				 M24,21.1c-0.2-0.2-0.2-0.5,0-0.7c0.2-0.2,0.5-0.2,0.7,0s0.2,0.5,0,0.7c-0.1,0.1-0.2,0.1-0.4,0.1C24.2,21.3,24.1,21.2,24,21.1z
				 M35.9,21.1c-0.2-0.2-0.2-0.5,0-0.7c0.2-0.2,0.5-0.2,0.7,0c0.2,0.2,0.2,0.5,0,0.7c-0.1,0.1-0.2,0.2-0.4,0.2
				C36.2,21.2,36.1,21.2,35.9,21.1L35.9,21.1z M21.9,27.2c-0.3,0-0.5-0.2-0.5-0.5s0.2-0.5,0.5-0.5s0.5,0.2,0.5,0.5
				S22.2,27.2,21.9,27.2L21.9,27.2z M38.3,26.7c0-0.3,0.2-0.5,0.5-0.5s0.5,0.2,0.5,0.5l0,0c0,0.3-0.2,0.5-0.5,0.5c0,0,0,0,0,0
				C38.5,27.2,38.3,27,38.3,26.7L38.3,26.7z M36,33.1c-0.2-0.2-0.2-0.5,0-0.7c0.2-0.2,0.5-0.2,0.7,0c0.2,0.2,0.2,0.5,0,0.7
				c-0.1,0.1-0.2,0.2-0.4,0.2C36.2,33.2,36.1,33.2,36,33.1z M24,33.1L24,33.1c-0.2-0.2-0.2-0.5,0-0.7c0.2-0.2,0.5-0.2,0.7,0
				c0,0,0,0,0,0l0,0l0,0c0.2,0.2,0.2,0.5,0,0.7c-0.1,0.1-0.2,0.2-0.4,0.1C24.2,33.2,24.1,33.2,24,33.1L24,33.1z M29.8,35.2
				c0-0.3,0.2-0.5,0.5-0.5s0.5,0.2,0.5,0.5s-0.2,0.5-0.5,0.5C30,35.7,29.8,35.5,29.8,35.2C29.8,35.2,29.8,35.2,29.8,35.2"/>
			<path id="path58" d="M44.5,32.3l2.5,4.3h-5L44.5,32.3L44.5,32.3L44.5,32.3z M44.5,31.3l-3.4,5.9h6.8L44.5,31.3"/>
			<path id="path60" d="M16.2,32.3l2.5,4.3h-5L16.2,32.3z M16.2,31.3l-3.4,5.9h6.8L16.2,31.3"/>
			<path id="path62" d="M30.3,7.8l2.5,4.3h-5L30.3,7.8L30.3,7.8L30.3,7.8z M30.3,6.7l-3.4,5.9h6.8L30.3,6.7"/>
		</g>
		<path id="path72" d="M51.9,45c-0.1,0-0.2,0-0.3,0c-0.2,0.1-0.3,0.2-0.4,0.4c0,0.1-0.1,0.2-0.1,0.3c0,0.1,0,0.2,0.1,0.3
			c0.1,0.2,0.2,0.3,0.4,0.4c0.2,0.1,0.4,0.1,0.6,0c0.2-0.1,0.3-0.2,0.4-0.4c0.1-0.2,0.1-0.4,0-0.6c-0.1-0.2-0.2-0.3-0.4-0.4
			C52.1,45,52,45,51.9,45z M51.9,44.9c0.1,0,0.2,0,0.3,0.1c0.1,0,0.2,0.1,0.3,0.2c0.1,0.1,0.1,0.2,0.2,0.3c0,0.1,0.1,0.2,0.1,0.3
			c0,0.1,0,0.2-0.1,0.3c0,0.1-0.1,0.2-0.2,0.3c-0.1,0.1-0.2,0.1-0.3,0.2c-0.1,0-0.2,0.1-0.3,0.1c-0.1,0-0.2,0-0.3-0.1
			c-0.1,0-0.2-0.1-0.3-0.2c-0.1-0.1-0.1-0.2-0.2-0.3c0-0.1-0.1-0.2-0.1-0.3c0-0.1,0-0.2,0.1-0.3c0-0.1,0.1-0.2,0.2-0.3
			c0.1-0.1,0.2-0.1,0.3-0.1C51.7,45,51.8,44.9,51.9,44.9L51.9,44.9z M51.9,45.4h-0.1v0.3h0.1c0.1,0,0.1,0,0.2,0
			c0.1-0.1,0.1-0.2,0-0.2c0,0,0,0,0,0C52,45.4,51.9,45.4,51.9,45.4L51.9,45.4z M51.9,45.2c0.1,0,0.2,0,0.3,0.1
			c0.1,0,0.1,0.1,0.1,0.2c0,0.1,0,0.1-0.1,0.2c0,0-0.1,0.1-0.2,0.1c0,0,0,0,0.1,0c0,0,0.1,0.1,0.1,0.1l0.1,0.3h-0.2L52,46
			c0-0.1-0.1-0.1-0.1-0.1c0,0-0.1,0-0.1,0h-0.1v0.4h-0.2v-1L51.9,45.2L51.9,45.2z"/>
	</g>
</g>
</svg>
