<svg xmlns="http://www.w3.org/2000/svg" width="16" height="16" viewBox="0 10 16 16"><path fill="#C1D640" d="M11.077 16.767c0-1.187-.42-2.2-1.263-3.043S7.957 12.46 6.77 12.46s-2.2.422-3.043 1.264S2.46 15.58 2.46 16.767s.422 2.2 1.264 3.044c.842.843 1.857 1.264 3.044 1.264s2.2-.42 3.043-1.263c.846-.842 1.267-1.856 1.267-3.043zm4.922 8c0 .335-.12.624-.368.865-.243.243-.53.366-.864.366-.347 0-.634-.12-.864-.366l-3.297-3.287c-1.15.793-2.426 1.193-3.837 1.193-.916 0-1.793-.178-2.63-.534s-1.56-.836-2.163-1.44S.89 20.233.533 19.397C.178 18.56 0 17.686 0 16.768s.178-1.795.533-2.63c.356-.838.837-1.56 1.44-2.164.608-.607 1.33-1.086 2.164-1.44S5.85 10 6.767 10s1.794.177 2.63.533 1.56.837 2.164 1.44c.608.608 1.09 1.33 1.442 2.164.355.836.533 1.71.533 2.63 0 1.41-.396 2.688-1.192 3.837L15.64 23.9c.24.24.36.53.36.868z"/></svg>