<svg xmlns="http://www.w3.org/2000/svg" width="18" height="17.6" viewBox="0 0 18 17.6"><path d="M14.7 8.4H3.3C1.5 8.4 0 9.9 0 11.7v2.6c0 1.8 1.5 3.3 3.3 3.3h11.4c1.8 0 3.3-1.5 3.3-3.3v-2.6c0-1.8-1.5-3.3-3.3-3.3zm-9 2H4.6v5.3h-1v-5.3H2.5v-.9h3.1v.9zm3 5.3h-.9v-.5c-.2.2-.3.3-.5.4-.2.1-.4.1-.5.1-.2 0-.4-.1-.5-.2-.1-.1-.2-.3-.2-.6v-3.8H7v3.5c0 .1 0 .2.1.2 0 0 .1.1.2.1s.2 0 .3-.1c.1-.1.2-.1.3-.2v-3.5h.9v4.6zm3.3-.9c0 .3-.1.6-.2.7-.1.2-.3.3-.6.3-.2 0-.3 0-.5-.1-.1-.1-.3-.2-.4-.3v.3h-.9V9.5h.9v2c.1-.1.3-.2.4-.3.1-.1.3-.1.4-.1.3 0 .5.1.7.3.2.2.2.5.2.9v2.5zm3.2-1.2h-1.7v.9c0 .2 0 .4.1.5.1.1.2.1.3.1.2 0 .3 0 .3-.1.1-.1.1-.3.1-.5v-.2h.9v.2c0 .5-.1.8-.3 1.1-.2.2-.6.4-1 .4s-.7-.1-1-.4c-.2-.2-.4-.6-.4-1v-2c0-.4.1-.7.4-1 .3-.2.6-.4 1-.4s.7.1 1 .3c.2.2.3.6.3 1v1.1z"/><path d="M13.8 11.8c-.1 0-.2 0-.3.1-.1.1-.1.2-.1.4v.5h.8v-.5c0-.2 0-.3-.1-.4 0 0-.1-.1-.3-.1zM10.7 11.8h-.2c-.1 0-.1.1-.2.1v2.8l.2.2h.2c.1 0 .2 0 .2-.1.1-.1.1-.2.1-.3v-2.4c0-.2 0-.3-.1-.4 0 .2-.1.1-.2.1zM4.8 6.8h1.1V4l1.4-4H6.1l-.7 2.7h-.1L4.6 0H3.4l1.4 4.1M8.8 6.9c.5 0 .8-.1 1.1-.4.3-.2.4-.6.4-1V3c0-.4-.1-.7-.4-.9-.3-.2-.6-.4-1-.4-.5 0-.8.1-1.1.3-.3.2-.4.5-.4.9v2.6c0 .4.1.8.4 1 .2.3.6.4 1 .4zm-.4-4c0-.1 0-.2.1-.3.1-.1.2-.1.3-.1.1 0 .2 0 .3.1.1.1.1.2.1.3v2.7c0 .1 0 .2-.1.3 0 .1-.1.2-.3.2-.1 0-.2 0-.3-.1 0-.1-.1-.2-.1-.4V2.9zM11.9 6.9c.2 0 .4-.1.6-.2.2-.1.4-.3.6-.5v.6h1v-5h-1v3.8l-.3.3c-.2 0-.3.1-.3.1-.1 0-.2 0-.2-.1s-.1-.1-.1-.3V1.8h-1V6c0 .3.1.5.2.7.1.1.2.2.5.2z"/></svg>