<svg id="Layer_1" data-name="Layer 1" xmlns="http://www.w3.org/2000/svg" xmlns:xlink="http://www.w3.org/1999/xlink" width="142.81" height="144.19" viewBox="0 0 142.81 144.19">
  <defs>
    <style>
      .cls-1 {
        fill: none;
      }

      .cls-2 {
        clip-path: url(#clip-path);
      }

      .cls-3 {
        fill: #010101;
      }

      .cls-4 {
        fill: #c1d831;
      }

      .cls-5 {
        fill: #fff;
      }
    </style>
    <clipPath id="clip-path" transform="translate(-11.5 -8.99)">
      <rect class="cls-1" x="1.64" y="-0.84" width="162.73" height="167.8"/>
    </clipPath>
  </defs>
  <title>small</title>
  <g id="g10">
    <g id="g4259">
      <g id="g12">
        <g id="g14">
          <g class="cls-2">
            <g id="g16">
              <path id="path22" class="cls-3" d="M80.4,9L11.5,128.3h137.8L80.4,9" transform="translate(-11.5 -8.99)"/>
              <path id="path24" class="cls-3" d="M23.6,148.62a0.45,0.45,0,0,1,.35.15,0.52,0.52,0,0,1,.13.36v3.54a0.52,0.52,0,0,1-.13.36,0.45,0.45,0,0,1-.35.15H12a0.45,0.45,0,0,1-.51-0.51V134.91A0.45,0.45,0,0,1,12,134.4h3.7a0.45,0.45,0,0,1,.51.51v13.23a0.45,0.45,0,0,0,.15.35,0.51,0.51,0,0,0,.36.13H23.6" transform="translate(-11.5 -8.99)"/>
              <path id="path26" class="cls-3" d="M45,134.55a0.49,0.49,0,0,1,.15.36v14.73h0a2.08,2.08,0,0,1-.05.46,1.9,1.9,0,0,1-.13.4L42.45,153a1.55,1.55,0,0,1-.47.16,2.63,2.63,0,0,1-.5.06H33a2.41,2.41,0,0,1-.48-0.06A1.55,1.55,0,0,1,32,153l-2.47-2.47a1.52,1.52,0,0,1-.16-0.46,2.41,2.41,0,0,1-.05-0.48V134.91a0.51,0.51,0,0,1,.51-0.51h3.7a0.51,0.51,0,0,1,.51.51v13.23a0.48,0.48,0,0,0,.15.36,0.49,0.49,0,0,0,.36.15H39.9a0.45,0.45,0,0,0,.35-0.15,0.51,0.51,0,0,0,.13-0.36V134.91a0.5,0.5,0,0,1,.51-0.51h3.73a0.49,0.49,0,0,1,.36.15" transform="translate(-11.5 -8.99)"/>
              <path id="path28" class="cls-3" d="M64.15,148.62a0.45,0.45,0,0,1,.35.15,0.51,0.51,0,0,1,.13.36v3.54a0.52,0.52,0,0,1-.13.36,0.45,0.45,0,0,1-.35.15H52.57a0.45,0.45,0,0,1-.51-0.51V134.91a0.45,0.45,0,0,1,.51-0.51h3.7a0.45,0.45,0,0,1,.51.51v13.23a0.45,0.45,0,0,0,.15.35,0.51,0.51,0,0,0,.36.13h6.87" transform="translate(-11.5 -8.99)"/>
              <path id="path30" class="cls-3" d="M84.25,138.29a1.11,1.11,0,0,1-.11.46,1.82,1.82,0,0,1-.24.4L75.18,149h8.56a0.48,0.48,0,0,1,.36.15,0.49,0.49,0,0,1,.15.36v3.19a0.49,0.49,0,0,1-.15.36,0.48,0.48,0,0,1-.36.15H70.41a0.45,0.45,0,0,1-.51-0.51v-3.35a1.36,1.36,0,0,1,.09-0.47,1.35,1.35,0,0,1,.23-0.42l8.91-9.82H70.57a0.51,0.51,0,0,1-.51-0.51v-3.19a0.51,0.51,0,0,1,.51-0.51H83.74a0.48,0.48,0,0,1,.36.15,0.49,0.49,0,0,1,.15.36v3.38" transform="translate(-11.5 -8.99)"/>
              <path id="path32" class="cls-3" d="M95.46,149.08h7.22v-3.65H95.46v3.65h0Zm0-7.24h7.22v-3.35H95.46v3.35h0Zm11.29-4.75a2.76,2.76,0,0,1,.15.47,2.16,2.16,0,0,1,.07.5v3a1.35,1.35,0,0,1-.09.47,1.32,1.32,0,0,1-.23.42l-1.15,1.48a0.54,0.54,0,0,0-.12.4,0.54,0.54,0,0,0,.15.38l1.1,1.34a1.62,1.62,0,0,1,.24.42,1.22,1.22,0,0,1,.11.47v3.16a2,2,0,0,1-.07.48,2.89,2.89,0,0,1-.15.46L104.29,153a1.58,1.58,0,0,1-.47.16,2.64,2.64,0,0,1-.5.06H91.71a0.45,0.45,0,0,1-.51-0.51V134.91a0.51,0.51,0,0,1,.51-0.51h11.62a2.29,2.29,0,0,1,.5.07,3.06,3.06,0,0,1,.47.15l2.47,2.47" transform="translate(-11.5 -8.99)"/>
              <path id="path34" class="cls-3" d="M118.48,148.65h6.31V139h-6.31v9.68Zm10.84-11.56a3.15,3.15,0,0,1,.15.46,2,2,0,0,1,.07.48v11.54a2,2,0,0,1-.07.48,3.21,3.21,0,0,1-.15.46L126.85,153a1.55,1.55,0,0,1-.47.16,2.61,2.61,0,0,1-.5.06h-8.5a2.43,2.43,0,0,1-.48-0.06,1.54,1.54,0,0,1-.45-0.16L114,150.5a1.58,1.58,0,0,1-.16-0.46,2.41,2.41,0,0,1-.05-0.48V138a2.45,2.45,0,0,1,.05-0.48,1.57,1.57,0,0,1,.16-0.46l2.47-2.47a3.06,3.06,0,0,1,.45-0.15,2.11,2.11,0,0,1,.48-0.07h8.5a2.27,2.27,0,0,1,.5.07,3,3,0,0,1,.47.15l2.47,2.47" transform="translate(-11.5 -8.99)"/>
              <path id="path36" class="cls-3" d="M149.3,138.45a0.51,0.51,0,0,1-.51.51H145a0.53,0.53,0,0,0-.36.13,0.45,0.45,0,0,0-.15.35v13.22a0.53,0.53,0,0,1-.13.36,0.45,0.45,0,0,1-.35.15h-3.73a0.49,0.49,0,0,1-.36-0.15,0.5,0.5,0,0,1-.15-0.36V139.45a0.46,0.46,0,0,0-.48-0.48h-3.81a0.51,0.51,0,0,1-.51-0.51v-3.54a0.45,0.45,0,0,1,.51-0.51h13.33a0.5,0.5,0,0,1,.51.51v3.54" transform="translate(-11.5 -8.99)"/>
              <path id="path38" class="cls-4" d="M80.4,15.77L96.66,43.93H64.14L80.4,15.77" transform="translate(-11.5 -8.99)"/>
              <path id="path40" class="cls-4" d="M17.41,124.84L33.64,96.73l16.23,28.11H17.41" transform="translate(-11.5 -8.99)"/>
              <path id="path42" class="cls-4" d="M53.79,124.84L35.6,93.34l26.54-46H98.65L125.1,93.18l-18.29,31.66h-53" transform="translate(-11.5 -8.99)"/>
              <path id="path44" class="cls-4" d="M110.73,124.84l16.33-28.27,16.33,28.27H110.73" transform="translate(-11.5 -8.99)"/>
              <path id="path46" class="cls-3" d="M81,121.09a1,1,0,0,1-1.31,0,5,5,0,0,1-.63-1.33A5.47,5.47,0,0,0,78,118a2.65,2.65,0,0,0-3.31-.44A5.57,5.57,0,0,0,73.25,119a5.11,5.11,0,0,1-1,1.13,1,1,0,0,1-1.26-.34,5,5,0,0,1-.26-1.46,5.38,5.38,0,0,0-.53-2,2.64,2.64,0,0,0-3.08-1.28,5.56,5.56,0,0,0-1.81,1,5.17,5.17,0,0,1-1.24.87,1,1,0,0,1-.69-0.11,1,1,0,0,1-.44-0.55,5.21,5.21,0,0,1,.15-1.5,5.39,5.39,0,0,0,0-2.08,2.72,2.72,0,0,0-1-1.49,2.75,2.75,0,0,0-1.69-.54,5.46,5.46,0,0,0-2,.59,5.29,5.29,0,0,1-1.46.56,1,1,0,0,1-.92-0.93,5.34,5.34,0,0,1,.56-1.45,5.52,5.52,0,0,0,.59-2.05,2.63,2.63,0,0,0-2-2.65,5.34,5.34,0,0,0-2.08,0,5,5,0,0,1-1.5.14,1,1,0,0,1-.65-1.13,5.22,5.22,0,0,1,.87-1.24,5.53,5.53,0,0,0,1-1.81,2.63,2.63,0,0,0-1.28-3.09,5.39,5.39,0,0,0-2-.53,5.18,5.18,0,0,1-1.45-.26,1,1,0,0,1-.34-1.27,5.1,5.1,0,0,1,1.13-1,5.53,5.53,0,0,0,1.45-1.46,2.63,2.63,0,0,0-.44-3.31,5.43,5.43,0,0,0-1.77-1,5.13,5.13,0,0,1-1.33-.63,1,1,0,0,1-.25-0.65,1,1,0,0,1,.25-0.66,5.13,5.13,0,0,1,1.33-.63,5.46,5.46,0,0,0,1.77-1,2.64,2.64,0,0,0,.44-3.31,5.56,5.56,0,0,0-1.45-1.46,5.15,5.15,0,0,1-1.13-1,1,1,0,0,1,.34-1.26A5,5,0,0,1,49.61,78a5.39,5.39,0,0,0,2-.53,2.64,2.64,0,0,0,1.28-3.08,5.6,5.6,0,0,0-1-1.81A5.35,5.35,0,0,1,51,71.3a1,1,0,0,1,.65-1.13,5,5,0,0,1,1.5.15,5.37,5.37,0,0,0,2.08,0,2.64,2.64,0,0,0,2-2.65,5.48,5.48,0,0,0-.59-2.05,5.32,5.32,0,0,1-.56-1.45,1,1,0,0,1,.28-0.64A1,1,0,0,1,57,63.25a5.31,5.31,0,0,1,1.45.56,5.47,5.47,0,0,0,2,.59,2.64,2.64,0,0,0,2.65-2,5.38,5.38,0,0,0,0-2.08A5.16,5.16,0,0,1,63,58.8a1,1,0,0,1,.44-0.55,1,1,0,0,1,.69-0.11,5.26,5.26,0,0,1,1.24.87,5.59,5.59,0,0,0,1.81,1,2.64,2.64,0,0,0,3.09-1.28,5.49,5.49,0,0,0,.53-2,5.09,5.09,0,0,1,.26-1.45,1,1,0,0,1,.57-0.41,1,1,0,0,1,.7.08,5,5,0,0,1,1,1.13,5.46,5.46,0,0,0,1.46,1.45,2.63,2.63,0,0,0,3.31-.43,5.45,5.45,0,0,0,1-1.77A5.13,5.13,0,0,1,79.73,54,1,1,0,0,1,81,54a5.07,5.07,0,0,1,.63,1.33,5.48,5.48,0,0,0,1,1.77,2.63,2.63,0,0,0,3.31.44,5.47,5.47,0,0,0,1.46-1.45,5.17,5.17,0,0,1,1-1.13,1,1,0,0,1,1.26.34A5,5,0,0,1,90,56.81a5.47,5.47,0,0,0,.53,2,2.64,2.64,0,0,0,3.09,1.28,5.6,5.6,0,0,0,1.81-1,5.32,5.32,0,0,1,1.24-.87,1,1,0,0,1,1.13.66,5.09,5.09,0,0,1-.15,1.5,5.37,5.37,0,0,0,0,2.08,2.64,2.64,0,0,0,2.65,2,5.56,5.56,0,0,0,2.05-.59,5.24,5.24,0,0,1,1.46-.56,1,1,0,0,1,.64.28,1,1,0,0,1,.28.64,5.36,5.36,0,0,1-.56,1.45,5.5,5.5,0,0,0-.59,2,2.63,2.63,0,0,0,2,2.65,5.42,5.42,0,0,0,2.08,0,5.07,5.07,0,0,1,1.5-.15,1,1,0,0,1,.54.44,1,1,0,0,1,.11.69,5.15,5.15,0,0,1-.87,1.24,5.57,5.57,0,0,0-1,1.81,2.64,2.64,0,0,0,1.27,3.09,5.51,5.51,0,0,0,2,.54,5,5,0,0,1,1.45.26,1,1,0,0,1,.34,1.27,5.23,5.23,0,0,1-1.13,1A5.5,5.5,0,0,0,110.35,82a2.64,2.64,0,0,0,.43,3.31,5.51,5.51,0,0,0,1.77,1,5.07,5.07,0,0,1,1.33.63,1,1,0,0,1,0,1.31,5,5,0,0,1-1.33.63,5.55,5.55,0,0,0-1.77,1,2.64,2.64,0,0,0-.44,3.31,5.55,5.55,0,0,0,1.45,1.47,5.12,5.12,0,0,1,1.13,1,1,1,0,0,1-.34,1.26,5,5,0,0,1-1.46.26,5.38,5.38,0,0,0-2,.54A2.71,2.71,0,0,0,108,99a2.75,2.75,0,0,0-.09,1.77,5.6,5.6,0,0,0,1,1.81,5.27,5.27,0,0,1,.87,1.24,1,1,0,0,1-.65,1.13,5.17,5.17,0,0,1-1.5-.15,5.3,5.3,0,0,0-2.08,0,2.63,2.63,0,0,0-2,2.65,5.49,5.49,0,0,0,.59,2,5.35,5.35,0,0,1,.56,1.46,1,1,0,0,1-.28.64,1,1,0,0,1-.64.29,5.38,5.38,0,0,1-1.45-.56,5.35,5.35,0,0,0-2-.59,2.72,2.72,0,0,0-1.69.54,2.75,2.75,0,0,0-1,1.49,5.37,5.37,0,0,0,0,2.08,5.09,5.09,0,0,1,.15,1.5,1,1,0,0,1-1.13.65,5.19,5.19,0,0,1-1.24-.87,5.49,5.49,0,0,0-1.81-1,2.64,2.64,0,0,0-3.09,1.28,5.44,5.44,0,0,0-.53,2,5,5,0,0,1-.26,1.46,1,1,0,0,1-1.26.34,5.15,5.15,0,0,1-1-1.13A5.54,5.54,0,0,0,86,117.55a2.64,2.64,0,0,0-3.31.43,5.47,5.47,0,0,0-1,1.77,5.07,5.07,0,0,1-.63,1.33" transform="translate(-11.5 -8.99)"/>
              <path id="path48" class="cls-5" d="M68.43,96.06a2.09,2.09,0,0,1-.32-0.63,2.56,2.56,0,0,1-.1-0.68,3,3,0,0,1,.06-0.66c0-.05,0-0.11,0-0.17l0-.11,0-.08a2.81,2.81,0,0,1,.15-0.31,2.65,2.65,0,0,1,.94-1l0.16-.09,0.09,0,0.08,0,0.23-.1c0.16-.08.33-0.17,0.54-0.26A3,3,0,0,1,71,91.73a4.66,4.66,0,0,1,.66,0,9.41,9.41,0,0,1,1.2.11l0.57,0.1h0.12l0.11,0,0.22,0a3,3,0,0,0,1.29-.26h0a3.49,3.49,0,0,0,.4-0.2,4.42,4.42,0,0,0,.75-0.56h0A2.31,2.31,0,0,0,77,90.29c0.18-.33.21-0.46,0-0.48a6.67,6.67,0,0,0-.95.09l-0.13,0h0L74.74,90c-0.43,0-.84.1-1.3,0.13a3,3,0,0,1-.73,0A2,2,0,0,1,72,89.82a1.89,1.89,0,0,1-.55-0.61,2.35,2.35,0,0,1-.16-0.35c0-.13-0.06-0.21-0.09-0.3a9,9,0,0,0-.37-1,10.58,10.58,0,0,0-.45-1,2.57,2.57,0,0,0-.56-0.75A1.4,1.4,0,0,0,69,85.47a1.84,1.84,0,0,0-.9.17l-0.1,0-0.09.05-0.18.14a1.44,1.44,0,0,0-.45,1.23,2,2,0,0,0,.11.48l0,0.06v0h0v0l0,0.05,0,0a1.14,1.14,0,0,0,.13.17,1,1,0,0,0,.8.3A1.58,1.58,0,0,0,69.3,88a1.14,1.14,0,0,0,.47-0.77V87.14A0.25,0.25,0,0,1,70.09,87a0.24,0.24,0,0,1,.15.3,1.46,1.46,0,0,1-.2.58,1.77,1.77,0,0,1-.43.5,2.08,2.08,0,0,1-1.19.45,1.88,1.88,0,0,1-.66-0.08,1.47,1.47,0,0,1-.59-0.36A1.55,1.55,0,0,1,67,88.12l0-.08,0-.08,0,0,0,0,0-.07a2.73,2.73,0,0,1-.18-0.61,2.15,2.15,0,0,1,.58-1.85,2.08,2.08,0,0,1,.25-0.22L67.6,85l0.15-.09A2.76,2.76,0,0,1,69,84.63a2.29,2.29,0,0,1,1.3.44,3.49,3.49,0,0,1,.86,1,10.69,10.69,0,0,1,.57,1c0.17,0.35.33,0.69,0.52,1a1.23,1.23,0,0,0,.24.36,0.81,0.81,0,0,0,.24.18,1.44,1.44,0,0,0,.28.13,1.84,1.84,0,0,0,.39.07,1.67,1.67,0,0,0,.92-0.21,3.83,3.83,0,0,0,.53-0.35,2.41,2.41,0,0,0,.63-0.64,4.27,4.27,0,0,1-.3-3.45,11.37,11.37,0,0,1-.78-1,5.94,5.94,0,0,1-.66-1.3,4.11,4.11,0,0,1-.19-0.77,2.64,2.64,0,0,1,.12-1.25l0-.1v0l0,0,0.06-.13A4.87,4.87,0,0,0,74,79a3.89,3.89,0,0,0,.2-1.06,1.22,1.22,0,0,0,0-.39,0.69,0.69,0,0,0-.07-0.17L74,77.13a2,2,0,0,0-1.37-.76,1.15,1.15,0,0,0-1.22.69,1.42,1.42,0,0,0-.08.19l0,0.1,0,0.13a1.37,1.37,0,0,0-.06.39,0.69,0.69,0,0,0,.29.59,1.37,1.37,0,0,0,.8.23,1.55,1.55,0,0,0,.85-0.22h0a0.23,0.23,0,0,1,.28,0,0.22,0.22,0,0,1,0,.31h0a1.71,1.71,0,0,1-.52.31,2.35,2.35,0,0,1-.58.14,2,2,0,0,1-1.22-.22,1.42,1.42,0,0,1-.5-0.49,1.55,1.55,0,0,1-.22-0.66,2.35,2.35,0,0,1,0-.64l0-.14s0-.1,0-0.15a2.57,2.57,0,0,1,.1-0.3,2.11,2.11,0,0,1,.82-1,2.25,2.25,0,0,1,1.28-.33,3.09,3.09,0,0,1,2.2,1.12h0l0,0,0.17,0.25a1.86,1.86,0,0,1,.2.38,2.06,2.06,0,0,1,.12.81,8.63,8.63,0,0,1-.21,1.33c0,0.21-.08.42-0.12,0.62l0,0.16v0.06h0a0.29,0.29,0,0,0,0,0,1.33,1.33,0,0,0,0,.19,1.67,1.67,0,0,0,.29.75,3.92,3.92,0,0,0,.65.73,7.61,7.61,0,0,0,.65.51,4.27,4.27,0,0,1,5.12.52,3.46,3.46,0,0,0,.74-0.65h0l0,0a5.46,5.46,0,0,0,.42-0.6A3.38,3.38,0,0,0,83.26,81a1.65,1.65,0,0,0,.09-0.61,1.09,1.09,0,0,0-.16-0.5A1.28,1.28,0,0,0,83,79.64l-0.14-.14-0.14-.14c-0.18-.18-0.38-0.36-0.57-0.53-0.39-.34-0.81-0.65-1.25-1a4.77,4.77,0,0,1-.68-0.61,1.76,1.76,0,0,1-.3-0.47,1.19,1.19,0,0,1-.09-0.28,0.64,0.64,0,0,1,0-.07V76.24a2.49,2.49,0,0,1,.12-1,2.93,2.93,0,0,1,.19-0.44l0.12-.21,0.07-.1,0.07-.09h0s0,0,0,0h0l0,0,0-.05,0.08-.09,0.18-.17a2.65,2.65,0,0,1,.4-0.28,2.06,2.06,0,0,1,1-.26,2.18,2.18,0,0,1,.95.21,3.34,3.34,0,0,1,.41.22,2.06,2.06,0,0,1,.37.31,1.64,1.64,0,0,1,.45.89,1.76,1.76,0,0,1-.14,1,2.11,2.11,0,0,1-.57.75,1.6,1.6,0,0,1-.88.37h0A0.23,0.23,0,0,1,82.39,77a0.24,0.24,0,0,1,.21-0.25h0a1.09,1.09,0,0,0,.58-0.29,1.5,1.5,0,0,0,.38-0.56,1.15,1.15,0,0,0,.07-0.64,1,1,0,0,0-.31-0.53,1.56,1.56,0,0,0-.27-0.19,2.09,2.09,0,0,0-.32-0.16,1.49,1.49,0,0,0-.64-0.11,1.29,1.29,0,0,0-.59.2,1.65,1.65,0,0,0-.26.2l-0.11.12,0,0.06,0,0v0h0l0,0L81,75l0,0.07-0.08.15a2.85,2.85,0,0,0-.12.31,1.57,1.57,0,0,0,0,.62v0.1h0v0a0.48,0.48,0,0,0,0,.1,1,1,0,0,0,.16.2,4,4,0,0,0,.56.44c0.44,0.3.91,0.61,1.36,1,0.22,0.17.44,0.35,0.66,0.54l0.16,0.14,0.16,0.14a2.41,2.41,0,0,1,.35.42,2.23,2.23,0,0,1,.34,1,4.1,4.1,0,0,1,0,1,6.32,6.32,0,0,1-.22.92A8.7,8.7,0,0,1,84,83c-0.11.25-.22,0.5-0.35,0.74h0c0,0.12-.57,1.56.72,0.49l0.06-.05,0,0,0.27-.25a7.76,7.76,0,0,0,1-1.07,4.24,4.24,0,0,0,.64-1.2,2.81,2.81,0,0,0,.09-0.32l0.08-.39,0.15-.78,0.16-.79c0.06-.26.11-0.54,0.2-0.81a3,3,0,0,1,.37-0.81c0.08-.12.17-0.23,0.27-0.34A2.13,2.13,0,0,1,88,77.09a3.19,3.19,0,0,1,.75-0.43l0.39-.15,0.42-.11h0.06l0.25,0,0.23,0.05a2.58,2.58,0,0,1,.45.16,2.23,2.23,0,0,1,.76.58,2.35,2.35,0,0,1,.47.83,3.75,3.75,0,0,1,.1.46,1.81,1.81,0,0,1,0,.49,1.48,1.48,0,0,1-.43.9,2,2,0,0,1-.85.47,2.35,2.35,0,0,1-.94.06A1.69,1.69,0,0,1,88.74,80l0,0h0a0.25,0.25,0,1,1,.34-0.35h0a1.19,1.19,0,0,0,.63.28,2,2,0,0,0,.76,0,1.47,1.47,0,0,0,.64-0.35A1,1,0,0,0,91.38,79a1.3,1.3,0,0,0,0-.36,2.64,2.64,0,0,0-.1-0.38,1.93,1.93,0,0,0-.38-0.65,1.78,1.78,0,0,0-.61-0.43A1.87,1.87,0,0,0,89.92,77l-0.19,0-0.14,0-0.31.1-0.34.14a2.61,2.61,0,0,0-.6.38,1.8,1.8,0,0,0-.23.24,3,3,0,0,0-.19.3,2.08,2.08,0,0,0-.24.64,8.56,8.56,0,0,0-.13,1.51c0,0.26,0,.52,0,0.79v0.4a4.19,4.19,0,0,1,0,.46,5.94,5.94,0,0,1-.5,1.72,11.24,11.24,0,0,1-.84,1.52,16.73,16.73,0,0,1-1,1.38l-0.07.09c0.3-.18.61-0.34,0.94-0.5a8.64,8.64,0,0,1,.88-0.34,4.35,4.35,0,0,1,1-.19,2.49,2.49,0,0,1,1.22.22,1.93,1.93,0,0,1,.54.38,2,2,0,0,1,.36.48l0.09,0.19L90.25,87l0.19,0.35,0.38,0.71c0.24,0.47.48,0.94,0.75,1.35A3.32,3.32,0,0,0,92,90a1.66,1.66,0,0,0,.24.19l0.12,0.06,0.15,0a1.65,1.65,0,0,0,.64,0l0.33-.08,0.16-.06,0.08,0,0.06,0,0,0h0l0.06,0,0.07,0,0.14-.1a1.6,1.6,0,0,0,.24-0.24,1.34,1.34,0,0,0,.28-0.59,1.48,1.48,0,0,0,0-.68A2,2,0,0,0,94.44,88a1.56,1.56,0,0,0-.17-0.3,1,1,0,0,0-.52-0.39,1.14,1.14,0,0,0-.67,0,1.52,1.52,0,0,0-.61.33,1,1,0,0,0-.34.53v0a0.27,0.27,0,0,1-.06.11,0.25,0.25,0,0,1-.35,0,0.24,0.24,0,0,1,0-.28,1.6,1.6,0,0,1,.48-0.74,2.07,2.07,0,0,1,.8-0.45,1.74,1.74,0,0,1,.95,0,1.56,1.56,0,0,1,.79.55,2.1,2.1,0,0,1,.25.4,3.32,3.32,0,0,1,.16.42,2.16,2.16,0,0,1,.08.94,2,2,0,0,1-.36.89,2.62,2.62,0,0,1-.32.35l-0.18.15-0.1.07-0.1.06-0.1.06-0.1.05-0.21.09a2.67,2.67,0,0,1-.44.13,2.39,2.39,0,0,1-.93,0L92.1,91l-0.24-.09a2.14,2.14,0,0,1-.41-0.27A4.92,4.92,0,0,1,90.82,90c-0.19-.21-0.36-0.43-0.52-0.64l-0.48-.64-0.48-.63-0.24-.31L89,87.62l-0.13-.14a0.39,0.39,0,0,0-.29-0.14,1,1,0,0,0-.34.07,3.88,3.88,0,0,0-1,.62,10.19,10.19,0,0,0-1,1l-0.06.07a15.07,15.07,0,0,1,1.11,1.07,7.06,7.06,0,0,1,.64.8,4,4,0,0,1,.51,1,2.61,2.61,0,0,1,.07,1.28,2.65,2.65,0,0,1-.21.59l-0.06.1,0,0.09L88,94.18a14.14,14.14,0,0,0-.68,1.38,4.65,4.65,0,0,0-.39,1.38,1.63,1.63,0,0,0,0,.61,0.9,0.9,0,0,0,.05.14l0,0,0,0.06a1.16,1.16,0,0,0,.19.22,3.32,3.32,0,0,0,1.25.62h0.23l0.3-.07a1.48,1.48,0,0,0,.53-0.32A1.72,1.72,0,0,0,90,97.72l0-.08h0v0l0,0,0.06-.15a1.15,1.15,0,0,0,.05-0.3A0.82,0.82,0,0,0,90,96.59a1.06,1.06,0,0,0-.47-0.35,1.54,1.54,0,0,0-.62-0.1,2,2,0,0,0-.59.1,0.29,0.29,0,0,1-.31-0.5h0l0.07,0a1.79,1.79,0,0,1,.81-0.18,2.19,2.19,0,0,1,.86.17,1.74,1.74,0,0,1,.72.55,1.44,1.44,0,0,1,.27.89,1.87,1.87,0,0,1-.06.44,1.81,1.81,0,0,1-.07.21l0,0.1,0,0.09a2.73,2.73,0,0,1-.48.72,2.27,2.27,0,0,1-.73.51,2.4,2.4,0,0,1-.43.14l-0.22,0h-0.3l-0.43-.11-0.41-.14a3.53,3.53,0,0,1-.81-0.44,1.92,1.92,0,0,1-.37-0.35l-0.08-.11-0.08-.12-0.11-.23a2.71,2.71,0,0,1-.22-1,4.66,4.66,0,0,1,0-.92c0-.29.1-0.58,0.16-0.85,0.13-.56.88-2.82-0.43-3.09h0c-0.16,0-2.71-.77-6.13,2.41-1.07,1,.72,2.54.72,2.54,0.39,0.39.78,0.77,1.16,1.22a3.71,3.71,0,0,1,.53.77,1.84,1.84,0,0,1,.17.51,1.79,1.79,0,0,1,0,.28s0,0,0,.07v0.18a2.39,2.39,0,0,1-.35.91,2.89,2.89,0,0,1-.29.37,1.33,1.33,0,0,1-.16.17l-0.09.08-0.1.08-0.08.06-0.1.07-0.21.12a2.57,2.57,0,0,1-.45.18,2,2,0,0,1-1,0,2.15,2.15,0,0,1-.84-0.4,3,3,0,0,1-.33-0.3,2.16,2.16,0,0,1-.29-0.37,1.57,1.57,0,0,1-.23-0.93,1.65,1.65,0,0,1,.34-0.88,2,2,0,0,1,.69-0.6,1.59,1.59,0,0,1,.9-0.2,0.27,0.27,0,0,1,.19.08,0.25,0.25,0,0,1,0,.35,0.24,0.24,0,0,1-.23.06,1.07,1.07,0,0,0-.64.13,1.56,1.56,0,0,0-.53.46,1.17,1.17,0,0,0-.23.63,1.06,1.06,0,0,0,.18.62,1.4,1.4,0,0,0,.22.27,2.39,2.39,0,0,0,.29.23,1.52,1.52,0,0,0,.63.26,1.31,1.31,0,0,0,.66-0.07,1.48,1.48,0,0,0,.31-0.14l0.14-.1,0.07-.05,0,0h0l0,0,0.05,0,0.06-.06,0.11-.13a2.08,2.08,0,0,0,.19-0.29,1.57,1.57,0,0,0,.17-0.62v-0.1h0a0.07,0.07,0,0,0,0,0,0.61,0.61,0,0,0,0-.12,1,1,0,0,0-.11-0.25,3,3,0,0,0-.45-0.52c-0.36-.34-0.79-0.67-1.21-1l-0.65-.5-0.32-.26L78.25,97,78.2,97l-0.11-.1a2.15,2.15,0,0,1-.36-0.51,2.3,2.3,0,0,1-.2-0.59,3.08,3.08,0,0,1,0-1.12,7.08,7.08,0,0,1,.67-1.8c0.14-.26.28-0.52,0.42-0.76h0a19.28,19.28,0,0,1-3.3,1.26h0l-0.21,0a4.3,4.3,0,0,1-1.34,0l-0.33-.05-0.16,0-0.15,0-0.51-.13a7.46,7.46,0,0,0-1-.18,2.21,2.21,0,0,0-.46,0,1.84,1.84,0,0,0-.41.07l-0.48.18-0.29.1-0.05,0,0,0-0.09,0a1.62,1.62,0,0,0-.61.56,2.06,2.06,0,0,0-.11.19l0,0v0l0,0.1a2.1,2.1,0,0,0-.07.44,1.32,1.32,0,0,0,.19.79,1.41,1.41,0,0,0,.67.52,1.8,1.8,0,0,0,.89.17,0.94,0.94,0,0,0,.68-0.4,1.56,1.56,0,0,0,0-1.71h0a0.23,0.23,0,0,1,0-.32,0.23,0.23,0,0,1,.32,0h0l0,0a2,2,0,0,1,.49,1.14A2.09,2.09,0,0,1,72,96.2a1.58,1.58,0,0,1-.48.51,1.65,1.65,0,0,1-.65.27,2.55,2.55,0,0,1-1.29-.14,2.26,2.26,0,0,1-1.1-.77" transform="translate(-11.5 -8.99)"/>
              <path id="path50" class="cls-4" d="M97.24,104.44a23.76,23.76,0,0,1-16.87,7h0A23.85,23.85,0,1,1,97.24,104.44Zm0.58-34.33a24.68,24.68,0,1,0,0,34.91,24.52,24.52,0,0,0,0-34.91" transform="translate(-11.5 -8.99)"/>
              <path id="path52" class="cls-4" d="M92.52,99.72a17.2,17.2,0,1,1,5-12.15,17.06,17.06,0,0,1-5,12.15h0ZM93.1,74.84a18,18,0,1,0,5.26,12.73A17.87,17.87,0,0,0,93.1,74.84" transform="translate(-11.5 -8.99)"/>
              <path id="path54" class="cls-5" d="M95.34,75l-0.45-.53,2-1.84,0.52,0.6L95.34,75h0ZM92.9,72.58l0.86-1.08,0.89-1L95.24,71l-1.84,2-0.5-.44h0ZM97,77.27c-0.12-.2-0.25-0.39-0.38-0.58l2.29-1.53q0.23,0.33.44,0.67Zm-6.36-6.34,1.45-2.34L92.73,69l-1.52,2.29-0.59-.38h0Zm7.65,8.81q-0.14-.32-0.29-0.64l2.48-1.19,0.33,0.73ZM88.15,69.64l1.09-2.53L90,67.44l-1.18,2.49-0.63-.29h0Zm11,12.73c-0.06-.22-0.12-0.45-0.19-0.67l2.63-.83c0.08,0.25.16,0.51,0.23,0.77l-2.66.72h0ZM85.53,68.72l0.72-2.66L87,66.29l-0.82,2.63-0.67-.19h0ZM99.74,85.11c0-.23-0.06-0.46-0.1-0.69l2.72-.45c0,0.26.08,0.53,0.11,0.79Zm-17-16.92,0.34-2.73,0.79,0.11-0.44,2.72Zm17.1,19.7c0-.23,0-0.46,0-0.69l2.75-.06c0,0.27,0,.53,0,0.8ZM80,68L80,65.29h0.79l0,2.75H80ZM99.65,90.67c0-.23.07-0.46,0.1-0.69l2.73,0.34c0,0.26-.07.52-0.11,0.78l-2.72-.43h0ZM77.23,68.29l-0.44-2.72,0.78-.11,0.34,2.73-0.69.1h0Zm24.64,25.14c-0.07.25-.14,0.51-0.22,0.76L99,93.38c0.07-.22.13-0.45,0.19-0.67l2.66,0.72M74.52,68.93L73.7,66.3l0.76-.22,0.73,2.65ZM98,96l0.29-.63,2.53,1.09c-0.1.24-.21,0.48-0.33,0.73L98,96h0Zm-26.09-26-1.18-2.49,0.73-.33,1.09,2.53ZM96.64,98.39c0.13-.19.25-0.39,0.37-0.59l2.34,1.45c-0.14.23-.28,0.45-0.43,0.67ZM69.5,71.32L68,69l0.67-.43,1.45,2.34Zm25.43,29.27,0.42-.49,2.15,1.72,0,0-0.5.58ZM67.3,73l-1.84-2,0.6-.52,1.77,2.11L67.3,73h0Zm27.4,31.61-1.77-2.11,0.52-.46,1.85,2ZM63.26,73.28h0l0.51-.59,2,1.84L65.38,75l0,0.05-0.78-.72-1.3-1.09h0Zm28.87,33.23-1.45-2.34,0.59-.38,1.53,2.29-0.67.43h0ZM61.4,75.85l0.43-.67,2.29,1.53-0.38.59L61.4,75.85h0ZM89.3,108l-1.1-2.53,0.63-.29L90,107.66ZM59.92,78.67c0.1-.24.21-0.48,0.33-0.72l2.49,1.19q-0.15.31-.29,0.63l-2.52-1.1h0ZM86.31,109l-0.73-2.65,0.67-.2,0.83,2.63-0.77.22h0ZM58.87,81.67c0.07-.25.14-0.51,0.22-0.76l2.63,0.82c-0.07.22-.13,0.44-0.19,0.67l-2.66-.72h0Zm24.32,28-0.35-2.73,0.69-.1L84,109.55ZM58.25,84.79c0-.26.07-0.53,0.11-0.79l2.72,0.44c0,0.23-.07.46-0.1,0.69l-2.73-.34h0ZM80,109.85l0-2.75h0.7l0.06,2.75H80ZM58.09,88c0-.27,0-0.53,0-0.8l2.75,0.05c0,0.23,0,.47,0,0.7Zm18.77,21.61,0.43-2.72L78,107l-0.33,2.73-0.78-.11h0ZM58.37,91.12c0-.26-0.08-0.52-0.11-0.79L61,90c0,0.23.06,0.46,0.1,0.69l-2.72.44h0Zm15.39,17.74,0.81-2.63,0.67,0.19-0.72,2.66ZM59.09,94.22C59,94,58.94,93.71,58.87,93.45l2.66-.72c0.06,0.22.13,0.45,0.2,0.67ZM70.8,107.7L72,105.22l0.64,0.29L71.52,108l-0.72-.33h0ZM60.25,97.18c-0.12-.24-0.22-0.48-0.33-0.73l2.53-1.09c0.09,0.21.19,0.42,0.29,0.64Zm7.78,9,1.52-2.29,0.59,0.37-1.44,2.35L68,106.14h0Zm-6.21-6.19c-0.15-.22-0.29-0.45-0.43-0.67l2.34-1.44,0.38,0.59-2.29,1.53h0Zm3.64,4.2,1.84-2.05,0.53,0.46,0.06,0-1.78,2.1,0,0-0.61-.53h0Zm-1.69-1.69-0.52-.6,2.11-1.77,0.46,0.53-2,1.84" transform="translate(-11.5 -8.99)"/>
              <path id="path56" class="cls-4" d="M78.74,59.78a1.65,1.65,0,1,1,1.65,1.65A1.65,1.65,0,0,1,78.74,59.78ZM59.56,69.07a1.65,1.65,0,1,1,1.17.48A1.66,1.66,0,0,1,59.56,69.07Zm39.34,0a1.65,1.65,0,1,1,1.17.48A1.67,1.67,0,0,1,98.89,69.08ZM52.57,89.22a1.65,1.65,0,1,1,1.66-1.65,1.66,1.66,0,0,1-1.66,1.65h0Zm54-1.64a1.65,1.65,0,0,1,3.31,0h0A1.65,1.65,0,1,1,106.54,87.58Zm-7.63,20.84a1.65,1.65,0,1,1,1.16.48A1.62,1.62,0,0,1,98.92,108.42Zm-39.34,0v0l0,0h0a1.65,1.65,0,1,1,2.34-2.34l0,0,0,0a1.66,1.66,0,0,1-2.34,2.34h0Zm19.19,6.93a1.66,1.66,0,1,1,1.66,1.65,1.65,1.65,0,0,1-1.66-1.65" transform="translate(-11.5 -8.99)"/>
              <path id="path58" class="cls-3" d="M127.05,106.09l8.24,14.26H118.81l8.24-14.26h0Zm0-3.46-11.23,19.45h22.46l-11.23-19.45" transform="translate(-11.5 -8.99)"/>
              <path id="path60" class="cls-3" d="M33.66,106.09l8.24,14.26H25.42Zm0-3.46L22.43,122.08H44.89L33.66,102.63" transform="translate(-11.5 -8.99)"/>
              <path id="path62" class="cls-3" d="M80.4,25l8.24,14.26H72.16L80.4,25h0Zm0-3.46L69.17,41H91.63L80.4,21.51" transform="translate(-11.5 -8.99)"/>
            </g>
          </g>
        </g>
      </g>
      <path id="path72" class="cls-3" d="M151.51,148a2.36,2.36,0,0,0-.92.18,2.31,2.31,0,0,0-.78.53,2.44,2.44,0,0,0-.53.78,2.36,2.36,0,0,0-.18.92,2.32,2.32,0,0,0,.18.91,2.4,2.4,0,0,0,.53.78,2.26,2.26,0,0,0,1.7.71,2.4,2.4,0,0,0,.92-0.17,2.45,2.45,0,0,0,.78-0.53,2.42,2.42,0,0,0,.53-2.63,2.45,2.45,0,0,0-.53-0.78A2.35,2.35,0,0,0,151.51,148Zm0-.39a2.8,2.8,0,1,1,0,5.6,2.76,2.76,0,0,1-1.07-.21,2.69,2.69,0,0,1-.91-0.62,2.83,2.83,0,0,1-.62-0.9,2.78,2.78,0,0,1-.2-1.06,2.64,2.64,0,0,1,.82-2,2.69,2.69,0,0,1,.91-0.62A2.76,2.76,0,0,1,151.51,147.57Zm-0.1,1.56h-0.47v1h0.47a1.08,1.08,0,0,0,.58-0.11,0.58,0.58,0,0,0,0-.81A1,1,0,0,0,151.41,149.13Zm0-.39a1.78,1.78,0,0,1,1,.22,0.86,0.86,0,0,1,.13,1.22,1,1,0,0,1-.56.27,0.59,0.59,0,0,1,.22.18,3.61,3.61,0,0,1,.3.42l0.52,0.84h-0.65l-0.48-.78a1.73,1.73,0,0,0-.36-0.46,0.56,0.56,0,0,0-.34-0.1h-0.25v1.34h-0.58v-3.15h1.07Z" transform="translate(-11.5 -8.99)"/>
    </g>
  </g>
</svg>
